<svg width="25" height="24" fill="none" xmlns="http://www.w3.org/2000/svg"><g clip-path="url(#a)"><path opacity=".6" d="M4.882 0A4.373 4.373 0 0 0 .5 4.382v15.236A4.373 4.373 0 0 0 4.882 24h8.258v-9.383h-2.481V11.24h2.48V8.354c0-2.268 1.467-4.35 4.844-4.35 1.367 0 2.378.132 2.378.132l-.08 3.154s-1.03-.01-2.156-.01c-1.218 0-1.413.561-1.413 1.493v2.466h3.666l-.16 3.378h-3.506V24h3.406a4.373 4.373 0 0 0 4.382-4.382V4.382A4.373 4.373 0 0 0 20.118 0H4.882Z" fill="#fff"/></g><defs><clipPath id="a"><path fill="#fff" transform="translate(.5)" d="M0 0h24v24H0z"/></clipPath></defs></svg>