<svg width="25" height="24" fill="none" xmlns="http://www.w3.org/2000/svg"><g opacity=".6" clip-path="url(#a)"><path fill-rule="evenodd" clip-rule="evenodd" d="M12.5 0c6.627 0 12 5.373 12 12s-5.373 12-12 12-12-5.373-12-12 5.373-12 12-12Zm.494 4.563c1.816 0 3.595.718 4.881 2.043a6.867 6.867 0 0 1 2.006 4.88c0 3.822-3.103 6.963-6.925 6.963a6.757 6.757 0 0 1-3.292-.832l-3.67.945.984-3.594c-.568-1.06-.908-2.233-.908-3.443-.038-3.822 3.065-6.963 6.924-6.963ZM10.081 16.48c.87.53 1.892.795 2.913.795 1.06 0 2.12-.303 2.99-.87 2.724-1.665 3.518-5.184 1.853-7.908-1.665-2.725-5.183-3.52-7.908-1.854-2.724 1.664-3.519 5.221-1.854 7.908l.152.227-.568 2.156 2.195-.567.227.113Zm5.827-3.594.416.189a.472.472 0 0 1 .113.076v.265c-.038.19-.075.378-.151.53-.038.075-.114.15-.19.226a1 1 0 0 1-.113.095c-.038.028-.075.057-.113.095l-.076.075c-.042.043-.085.061-.134.083a.777.777 0 0 0-.13.069 1.404 1.404 0 0 1-.568.15h-.379a1.119 1.119 0 0 0-.189-.037 1.113 1.113 0 0 1-.19-.038 6.76 6.76 0 0 1-2.723-1.438c-.05-.074-.115-.132-.186-.195-.038-.033-.078-.068-.117-.107l-.151-.152a6.303 6.303 0 0 1-1.4-1.93l-.038-.113a2.245 2.245 0 0 1-.19-.87c0-.416.152-.833.417-1.173.038-.038.066-.076.094-.114.029-.038.057-.075.095-.113.038-.02.076-.048.113-.076.038-.028.076-.057.114-.076l.038-.037c.038 0 .075-.01.113-.02.038-.009.076-.018.114-.018h.416c.114.038.19.075.265.189.113.227.567 1.249.605 1.438.038.113 0 .265-.075.378-.038.038-.067.085-.095.133a.667.667 0 0 1-.095.132c-.113.114-.264.303-.264.303-.038.038-.038.113-.038.189.014.029.023.052.03.072.013.033.022.056.045.08l.038.075c.19.34.454.643.72.908.037.038.084.076.132.114.047.037.094.075.132.113.303.303.681.53 1.097.719l.19.076a.287.287 0 0 0 .15.075h.039a.208.208 0 0 0 .189-.113c.53-.606.568-.643.568-.643a.546.546 0 0 1 .264-.076c.02 0 .038.01.057.019.019.01.038.019.057.019.378.189.984.454.984.454Z" fill="#fff"/></g><defs><clipPath id="a"><path fill="#fff" transform="translate(.5)" d="M0 0h24v24H0z"/></clipPath></defs></svg>