<svg width="25" height="24" fill="none" xmlns="http://www.w3.org/2000/svg"><path opacity=".6" fill-rule="evenodd" clip-rule="evenodd" d="M22.5 12c0 .676-.069 1.345-.201 1.998a5.75 5.75 0 0 1-7.801 7.8A10.002 10.002 0 0 1 2.702 10.003a5.744 5.744 0 0 1-.264-4.952 5.75 5.75 0 0 1 8.064-2.848A10 10 0 0 1 22.5 12ZM8 14.6c0 1.25 1.5 2.9 4.801 2.9 3.148 0 4.648-1.551 4.699-3.65 0-1.35-.551-2.75-2.95-3.299l-2.2-.5c-.85-.201-1.8-.451-1.8-1.25 0-.8.7-1.352 1.899-1.352 1.406 0 1.92.584 2.346 1.068.301.342.558.633 1.055.633.65 0 1.15-.4 1.15-1.05 0-1.5-2.35-2.6-4.4-2.6-2.2 0-4.549.9-4.549 3.449 0 1.25.449 2.551 2.799 3.151l2.95.75c.899.25 1.1.75 1.1 1.201 0 .75-.75 1.5-2.1 1.5-1.534 0-2.063-.688-2.508-1.267-.324-.42-.603-.784-1.192-.784-.651 0-1.1.449-1.1 1.1Z" fill="#fff"/></svg>