<svg width="25" height="24" fill="none" xmlns="http://www.w3.org/2000/svg"><g clip-path="url(#a)"><path opacity=".6" d="M24.5 21.333V2.667A2.678 2.678 0 0 0 21.827 0H3.173C1.64 0 .5 1.137.5 2.667v18.666C.5 22.864 1.64 24 3.173 24h18.654a2.677 2.677 0 0 0 2.673-2.667Zm-5.088-7.19s1.51 1.489 1.881 2.18c.011.014.015.028.019.033.15.253.19.453.113.6-.125.244-.552.367-.697.377h-2.665c-.187 0-.574-.048-1.043-.372-.36-.25-.716-.665-1.063-1.069-.517-.6-.965-1.12-1.416-1.12a.511.511 0 0 0-.168.028c-.342.11-.777.596-.777 1.896 0 .407-.32.639-.547.639h-1.221c-.416 0-2.583-.146-4.501-2.171-2.355-2.48-4.47-7.455-4.488-7.499-.134-.321.142-.496.442-.496h2.694c.361 0 .477.219.56.415.093.223.445 1.121 1.021 2.132.937 1.644 1.515 2.313 1.975 2.313.086 0 .17-.023.245-.065.601-.332.49-2.476.463-2.919 0-.084-.002-.958-.308-1.378-.222-.304-.596-.42-.823-.464a.984.984 0 0 1 .355-.302c.412-.205 1.154-.234 1.893-.234h.41c.802.01 1.01.062 1.3.136.585.14.597.52.545 1.813-.015.368-.031.785-.031 1.275 0 .105-.004.221-.004.341-.019.661-.04 1.41.427 1.716.06.038.13.058.201.059.163 0 .65 0 1.968-2.263a16.65 16.65 0 0 0 1.057-2.265.704.704 0 0 1 .198-.244.462.462 0 0 1 .221-.052h3.167c.346 0 .581.052.625.184.076.212-.015.858-1.461 2.813l-.644.853c-1.312 1.718-1.312 1.806.077 3.11Z" fill="#fff"/></g><defs><clipPath id="a"><path fill="#fff" transform="translate(.5)" d="M0 0h24v24H0z"/></clipPath></defs></svg>