<svg width="48" height="48" fill="none" xmlns="http://www.w3.org/2000/svg"><g clip-path="url(#a)" fill="#fff"><path d="M44 3.2H4a4.005 4.005 0 0 0-4 4V36a4.005 4.005 0 0 0 4 4h24v4a.8.8 0 0 0 1.366.566L32 41.93l2.634 2.635A.8.8 0 0 0 36 44v-4h8a4.005 4.005 0 0 0 4-4V7.2a4.005 4.005 0 0 0-4-4ZM25.848 18.852a.426.426 0 0 1-.134-.675 2.033 2.033 0 0 0 0-2.753.427.427 0 0 1 .135-.676 2.036 2.036 0 0 0 1.053-2.544.426.426 0 0 1 .382-.573 2.034 2.034 0 0 0 1.947-1.947.425.425 0 0 1 .574-.382 2.04 2.04 0 0 0 2.544-1.054.425.425 0 0 1 .674-.134 2.033 2.033 0 0 0 2.754 0 .425.425 0 0 1 .675.135 2.036 2.036 0 0 0 2.543 1.053.426.426 0 0 1 .574.382 2.036 2.036 0 0 0 1.951 1.948.424.424 0 0 1 .382.572 2.034 2.034 0 0 0 1.054 2.544.426.426 0 0 1 .134.675 2.033 2.033 0 0 0 0 2.753.427.427 0 0 1-.135.676 2.036 2.036 0 0 0-1.053 2.544.426.426 0 0 1-.382.573 2.035 2.035 0 0 0-1.951 1.951.425.425 0 0 1-.574.383 2.039 2.039 0 0 0-2.544 1.053.411.411 0 0 1-.301.24.418.418 0 0 1-.373-.105 2.034 2.034 0 0 0-2.754 0 .42.42 0 0 1-.373.105.412.412 0 0 1-.302-.24 2.035 2.035 0 0 0-2.543-1.053.426.426 0 0 1-.574-.382 2.036 2.036 0 0 0-1.951-1.953.424.424 0 0 1-.382-.572 2.034 2.034 0 0 0-1.05-2.544Zm8.787 14.982-.235.235v-7.52c.107 0 .21.04.289.113a2 2 0 0 0 1.773.5 2 2 0 0 0 1.44-1.14.427.427 0 0 1 .535-.221c.243.086.5.125.759.114v8.154l-1.834-1.834a.8.8 0 0 0-1.132 0l-1.595 1.599Zm-.235 8.235-1.834-1.834a.8.8 0 0 0-1.132 0L29.6 42.069V25.914c.258.01.516-.028.76-.115a.426.426 0 0 1 .534.22 2.001 2.001 0 0 0 1.444 1.142c.152.03.307.043.462.04V36a.8.8 0 0 0 1.366.565l.234-.235v5.738ZM46.4 36a2.4 2.4 0 0 1-2.4 2.4h-8v-3.669l.8-.8 2.634 2.635A.8.8 0 0 0 40.8 36V25.046a1.98 1.98 0 0 0 .367-1.07.428.428 0 0 1 .41-.409 2.025 2.025 0 0 0 1.821-2.727.427.427 0 0 1 .221-.533 2.024 2.024 0 0 0 .64-3.218.427.427 0 0 1 0-.578 2.025 2.025 0 0 0-.64-3.217.426.426 0 0 1-.221-.534 2.024 2.024 0 0 0-1.822-2.727.428.428 0 0 1-.41-.409 2.026 2.026 0 0 0-2.726-1.823.423.423 0 0 1-.534-.22 2.025 2.025 0 0 0-3.218-.64.426.426 0 0 1-.578 0 2.025 2.025 0 0 0-3.216.64.425.425 0 0 1-.536.22 2.025 2.025 0 0 0-2.726 1.824.428.428 0 0 1-.41.409 2.025 2.025 0 0 0-1.821 2.727.427.427 0 0 1-.221.534 2.024 2.024 0 0 0-.64 3.217.427.427 0 0 1 0 .579 2.025 2.025 0 0 0 .64 3.216.425.425 0 0 1 .222.534 2.024 2.024 0 0 0 1.821 2.727c.222.01.4.187.41.409.016.384.144.755.367 1.069V38.4H4A2.4 2.4 0 0 1 1.6 36V7.2A2.4 2.4 0 0 1 4 4.8h40a2.4 2.4 0 0 1 2.4 2.4V36Z"/><path d="M8.8 32a2.4 2.4 0 0 1-2.4-2.4v-16a2.4 2.4 0 0 1 2.4-2.4h14.4a.8.8 0 1 0 0-1.6H8.8a4.005 4.005 0 0 0-4 4v16a4.005 4.005 0 0 0 4 4H24a.8.8 0 1 0 0-1.6H8.8Z"/><path d="M9.6 22.4h11.2a.8.8 0 1 0 0-1.6H9.6a.8.8 0 0 0 0 1.6Zm0-3.2h11.2a.8.8 0 1 0 0-1.6H9.6a.8.8 0 0 0 0 1.6Zm0-3.2h11.2a.8.8 0 1 0 0-1.6H9.6a.8.8 0 0 0 0 1.6Zm-.734 13.92a.8.8 0 0 0 1.054.414 6.15 6.15 0 0 0 2.005-1.223 3.76 3.76 0 0 0 .564-.72c.305.344.664.635 1.063.864a2.168 2.168 0 0 0 1.878.24c.241-.094.46-.239.64-.424.362.226.76.387 1.178.476l.605.143a12.58 12.58 0 0 0 3.803.504.8.8 0 0 0-.115-1.596 11.047 11.047 0 0 1-3.315-.464l-.619-.146c-.746-.172-.938-.473-1.017-.685a.8.8 0 0 0-1.548.337.404.404 0 0 1-.178.36.738.738 0 0 1-.528-.136 3.28 3.28 0 0 1-1.376-1.74.8.8 0 0 0-1.549.326 2.069 2.069 0 0 1-.619 1.526c-.444.388-.957.69-1.512.89a.8.8 0 0 0-.414 1.054ZM34.4 23.2a6.4 6.4 0 1 0-6.4-6.4 6.407 6.407 0 0 0 6.4 6.4Zm0-11.2a4.799 4.799 0 0 1 3.394 8.195A4.8 4.8 0 1 1 34.4 12Z"/></g><defs><clipPath id="a"><path fill="#fff" d="M0 0h48v48H0z"/></clipPath></defs></svg>