<svg width="48" height="48" fill="none" xmlns="http://www.w3.org/2000/svg"><path d="M41.303 21.201a4.283 4.283 0 0 1-.74-2.765 5.347 5.347 0 0 0-3.031-5.25 4.285 4.285 0 0 1-2.025-2.025 5.34 5.34 0 0 0-5.249-3.03 4.233 4.233 0 0 1-2.761-.739 5.345 5.345 0 0 0-6.068 0 4.238 4.238 0 0 1-2.764.74 5.343 5.343 0 0 0-5.247 3.03 4.285 4.285 0 0 1-2.026 2.025 5.34 5.34 0 0 0-3.029 5.247 4.268 4.268 0 0 1-.74 2.764 5.345 5.345 0 0 0 0 6.067c.556.805.82 1.785.74 2.762a5.337 5.337 0 0 0 3.03 5.25 4.285 4.285 0 0 1 2.025 2.024 5.35 5.35 0 0 0 5.249 3.03c.982-.079 1.95.18 2.765.741a5.349 5.349 0 0 0 6.06 0 4.25 4.25 0 0 1 2.765-.74 5.347 5.347 0 0 0 5.25-3.031 4.286 4.286 0 0 1 2.025-2.025 5.345 5.345 0 0 0 3.03-5.25 4.283 4.283 0 0 1 .741-2.765 5.35 5.35 0 0 0 0-6.06Zm-.76 5.537a5.21 5.21 0 0 0-.9 3.362 4.422 4.422 0 0 1-2.508 4.343 5.21 5.21 0 0 0-2.462 2.462 4.424 4.424 0 0 1-4.342 2.506 5.172 5.172 0 0 0-3.362.9 4.426 4.426 0 0 1-5.013.001 5.172 5.172 0 0 0-3.363-.901 4.427 4.427 0 0 1-4.342-2.507 5.211 5.211 0 0 0-2.463-2.462 4.414 4.414 0 0 1-2.505-4.34 5.19 5.19 0 0 0-.9-3.361 4.422 4.422 0 0 1 0-5.018c.676-.98.996-2.174.9-3.363a4.417 4.417 0 0 1 2.505-4.34 5.21 5.21 0 0 0 2.463-2.463 4.42 4.42 0 0 1 4.34-2.505 5.158 5.158 0 0 0 3.363-.9 4.422 4.422 0 0 1 5.018 0c.997.69 2.176.996 3.361.9a4.417 4.417 0 0 1 4.34 2.505 5.212 5.212 0 0 0 2.462 2.463 4.424 4.424 0 0 1 2.507 4.342 5.209 5.209 0 0 0 .901 3.363 4.426 4.426 0 0 1 0 5.012Z" fill="#fff"/><path d="M24.46 10.574c-7.53 0-13.655 6.125-13.655 13.654 0 7.532 6.125 13.66 13.655 13.66 7.531 0 13.658-6.128 13.658-13.66 0-7.529-6.127-13.654-13.658-13.654Zm0 26.39c-7.02 0-12.732-5.713-12.732-12.736 0-7.02 5.711-12.731 12.732-12.731 7.022 0 12.735 5.711 12.735 12.731 0 7.023-5.713 12.736-12.735 12.736Z" fill="#fff"/><path d="M24.46 13.805c-5.748 0-10.425 4.676-10.425 10.424 0 5.75 4.677 10.428 10.425 10.428 5.75 0 10.428-4.678 10.428-10.428 0-5.748-4.678-10.424-10.428-10.424Zm0 19.928c-5.24 0-9.501-4.263-9.501-9.504 0-5.239 4.262-9.501 9.501-9.501 5.24 0 9.504 4.262 9.504 9.501 0 5.24-4.263 9.505-9.504 9.505ZM34.846 4.846a.692.692 0 1 0 0-1.385.692.692 0 0 0 0 1.385ZM13.615 5.307a.692.692 0 1 0 0-1.384.692.692 0 0 0 0 1.384ZM42.23 35.769a.692.692 0 1 0 0-1.385.692.692 0 0 0 0 1.385ZM36.23 43.154a.692.692 0 1 0 0-1.385.692.692 0 0 0 0 1.385ZM15.923 44.538a.692.692 0 1 0 0-1.384.692.692 0 0 0 0 1.384ZM5.77 33.461a.692.692 0 1 0 0-1.384.692.692 0 0 0 0 1.384ZM5.308 14.077a.692.692 0 1 0 0-1.385.692.692 0 0 0 0 1.385Z" fill="#fff"/><path d="M41.538 6.23a2.31 2.31 0 0 0-2.307 2.308 2.31 2.31 0 0 0 2.307 2.308 2.31 2.31 0 0 0 2.308-2.308 2.31 2.31 0 0 0-2.308-2.308Zm0 3.693a1.386 1.386 0 0 1-1.384-1.385c0-.763.62-1.384 1.384-1.384.764 0 1.385.62 1.385 1.384 0 .764-.621 1.385-1.385 1.385Zm-33.23 27.23a3.697 3.697 0 0 0-3.693 3.693 3.697 3.697 0 0 0 3.693 3.692A3.697 3.697 0 0 0 12 40.846a3.697 3.697 0 0 0-3.692-3.692Zm0 6.462a2.772 2.772 0 0 1-2.77-2.77 2.772 2.772 0 0 1 2.77-2.768 2.772 2.772 0 0 1 2.769 2.769 2.772 2.772 0 0 1-2.77 2.77Zm20.066-14.97c.16-.35.242-.73.241-1.114v-7.062c0-1.489-1.21-2.7-2.7-2.7h-3.369a2.703 2.703 0 0 0-2.7 2.7v7.061c0 1.49 1.211 2.7 2.7 2.7h3.37c.754 0 1.437-.311 1.927-.812l1.138 1.139a.462.462 0 0 0 .653-.653l-1.26-1.26Zm-2.459.662h-3.369c-.98 0-1.777-.797-1.777-1.776v-7.062c0-.98.797-1.777 1.777-1.777h3.37c.98 0 1.776.797 1.776 1.777v7.061c0 .134-.016.264-.044.388l-1.937-1.937a.46.46 0 0 0-.753.503.46.46 0 0 0 .1.15l2.132 2.131a1.77 1.77 0 0 1-1.275.542Z" fill="#fff"/></svg>