<svg width="25" height="24" fill="none" xmlns="http://www.w3.org/2000/svg"><g clip-path="url(#a)"><path opacity=".6" d="M3.877 0A3.37 3.37 0 0 0 .5 3.377v17.246A3.37 3.37 0 0 0 3.877 24h17.246a3.37 3.37 0 0 0 3.377-3.377V3.377A3.37 3.37 0 0 0 21.123 0H3.877Zm9.16 2.453a4.943 4.943 0 0 1 4.939 4.938 4.942 4.942 0 0 1-4.938 4.938 4.943 4.943 0 0 1-4.94-4.938 4.945 4.945 0 0 1 4.94-4.938Zm-.052 2.893a2.049 2.049 0 0 0-1.992 2.045c0 1.127.917 2.044 2.045 2.044a2.046 2.046 0 0 0 2.043-2.044 2.047 2.047 0 0 0-2.043-2.045h-.053Zm-4.036 7.15c.261.001.525.073.763.223a6.273 6.273 0 0 0 6.65 0 1.447 1.447 0 1 1 1.54 2.45 9.251 9.251 0 0 1-2.867 1.188l2.762 2.761a1.446 1.446 0 1 1-2.046 2.046l-2.715-2.713-2.712 2.713a1.445 1.445 0 0 1-2.046 0 1.446 1.446 0 0 1 0-2.046l2.76-2.761a9.272 9.272 0 0 1-2.868-1.188 1.447 1.447 0 0 1-.452-1.995 1.445 1.445 0 0 1 1.23-.678Z" fill="#fff"/></g><defs><clipPath id="a"><path fill="#fff" transform="translate(.5)" d="M0 0h24v24H0z"/></clipPath></defs></svg>