<svg width="48" height="48" fill="none" xmlns="http://www.w3.org/2000/svg"><g clip-path="url(#a)"><g clip-path="url(#b)" fill="#fff"><path d="M14.965 5.156h7.482a.703.703 0 1 0 0-1.406h-7.482a.703.703 0 1 0 0 1.406Z"/><path d="M47.393 22.505V21.46a5.422 5.422 0 0 0-5.416-5.416h-5.172V6.42c0-3.54-2.88-6.42-6.42-6.42H7.027C3.487 0 .607 2.88.607 6.42v35.16c0 3.54 2.88 6.42 6.42 6.42h23.358c3.54 0 6.42-2.88 6.42-6.42v-.362h5.172a5.422 5.422 0 0 0 5.416-5.416V22.505Zm-1.406-1.045v.342h-29.95v-.342a4.014 4.014 0 0 1 4.01-4.01h21.93a4.014 4.014 0 0 1 4.01 4.01ZM35.399 41.58a5.02 5.02 0 0 1-5.014 5.014H7.027a4.98 4.98 0 0 1-3.546-1.469 4.981 4.981 0 0 1-1.468-3.545V6.42A4.98 4.98 0 0 1 3.48 2.875a4.98 4.98 0 0 1 3.546-1.469h23.358A5.02 5.02 0 0 1 35.4 6.42v9.624h-2.344v-8.33a3.968 3.968 0 0 0-3.963-3.964h-3.184a.703.703 0 0 0-.703.703v.154a2.671 2.671 0 0 1-2.668 2.668h-7.66a2.671 2.671 0 0 1-2.669-2.668v-.154a.703.703 0 0 0-.703-.703H8.32a3.968 3.968 0 0 0-3.963 3.964V9.19a.703.703 0 1 0 1.406 0V7.714A2.56 2.56 0 0 1 8.32 5.156h2.519a4.08 4.08 0 0 0 4.037 3.525h7.66a4.08 4.08 0 0 0 4.038-3.525h2.517a2.56 2.56 0 0 1 2.558 2.558v8.33H20.047a5.422 5.422 0 0 0-5.416 5.416v14.343a5.422 5.422 0 0 0 5.416 5.416h11.425a2.567 2.567 0 0 1-2.38 1.625H8.32a2.56 2.56 0 0 1-2.557-2.558V12.004a.703.703 0 1 0-1.406 0v28.282A3.968 3.968 0 0 0 8.32 44.25h20.772a3.977 3.977 0 0 0 3.851-3.032H35.4v.362Zm6.578-1.768h-21.93a4.014 4.014 0 0 1-4.01-4.01V27.46h22.336a.703.703 0 1 0 0-1.406H16.038v-2.846h29.949v2.846H41.18a.703.703 0 1 0 0 1.406h4.807v8.342a4.014 4.014 0 0 1-4.01 4.01Z"/><path d="M19.616 28.918h-1.695a.703.703 0 1 0 0 1.406h1.695a.703.703 0 1 0 0-1.406Zm3.824 0h-1.695a.703.703 0 1 0 0 1.406h1.695a.703.703 0 1 0 0-1.406Zm3.823 0h-1.695a.703.703 0 1 0 0 1.406h1.695a.703.703 0 0 0 0-1.406Zm3.824 0h-1.695a.703.703 0 1 0 0 1.406h1.695a.703.703 0 0 0 0-1.406ZM7.869 19.83c.711.466 1.21.623 1.82.672V21a.703.703 0 0 0 1.406 0v-.564c1.235-.3 2.027-1.348 2.201-2.382.225-1.34-.474-2.503-1.781-2.965-.764-.27-1.611-.597-2.094-.976-.187-.147-.268-.454-.206-.784.049-.257.198-.557.474-.735v.915a.703.703 0 0 0 1.406 0v-1.017c.279.095.45.23.484.258a.703.703 0 0 0 .9-1.08 3.138 3.138 0 0 0-1.384-.628v-.444a.703.703 0 1 0-1.406 0v.494c-.055.013-.11.028-.167.046-.866.26-1.514 1-1.689 1.93-.16.853.115 1.678.72 2.152.518.406 1.24.753 2.493 1.195.963.34.905 1.162.864 1.406a1.57 1.57 0 0 1-.815 1.126v-1.658a.703.703 0 1 0-1.406 0v1.8c-.363-.045-.629-.16-1.05-.435a.703.703 0 0 0-.77 1.176Z"/></g></g><defs><clipPath id="a"><path fill="#fff" d="M0 0h48v48H0z"/></clipPath><clipPath id="b"><path fill="#fff" d="M0 0h48v48H0z"/></clipPath></defs></svg>