<svg width="48" height="48" fill="none" xmlns="http://www.w3.org/2000/svg"><path d="M43.098 5.09H42c.713-1.912.618-3.315-.327-4.006-1.87-1.36-4.044 1.541-4.764 2.494l-.13.167c-.335.415-.634.888-.924 1.346H4.902A3.098 3.098 0 0 0 1.81 8.18V35.28a3.098 3.098 0 0 0 3.09 3.09h10.626v4.154h-1.549a2.74 2.74 0 0 0-2.734 2.734v.771h-2.83a.618.618 0 0 0-.618.618c0 .342.277.626.619.626h31.163a.618.618 0 1 0 0-1.237H36.75v-.77a2.74 2.74 0 0 0-2.734-2.735h-1.55v-4.153h10.626a3.098 3.098 0 0 0 3.09-3.09V8.188a3.079 3.079 0 0 0-3.083-3.098ZM35.52 45.266v.771H12.48v-.77c0-.83.67-1.499 1.498-1.499H34.03c.822 0 1.491.67 1.491 1.498ZM36.844 5.84c.29-.458.589-.931.894-1.31.037-.043.087-.115.16-.203 1.884-2.509 2.72-2.48 3.047-2.24.51.371.517 2.11-1.534 5.375A26.768 26.768 0 0 1 37.586 10l-2.24-1.418c.436-.924.945-1.862 1.498-2.742Zm-2.153 7.796c.313.393.589 1.004.167 1.702-1.243 2.051-3.069 2.117-4.422 1.782.43-.458.917-1.236.968-2.466.036-.734.232-1.658 1.01-1.912.706-.218 1.702.174 2.277.894Zm.604-1.243-1.12-.706c.145-.582.378-1.258.669-1.97l1.934 1.214a13.864 13.864 0 0 1-1.483 1.462ZM4.902 6.327h30.225c-1.01 1.804-1.803 3.68-2.152 5.127a2.49 2.49 0 0 0-.931.124c-.655.211-1.768.887-1.862 3.026-.037.734-.27 1.316-.691 1.73a1.14 1.14 0 0 0-.305 1.12c.109.408.421.728.829.837.45.116 1.01.225 1.636.225 1.389 0 3.055-.516 4.276-2.53.495-.808.51-1.739.08-2.575 1.404-1.135 3.12-3.164 4.466-5.295.392-.625.727-1.221 1.003-1.781h1.637c1.025 0 1.854.836 1.854 1.854v21.55h-1.214l-6.568-9.848a1.401 1.401 0 0 0-1.17-.626c-.473 0-.91.233-1.164.611l-2.64 3.71-5.316-7.979a1.428 1.428 0 0 0-2.364 0l-4.087 6.124v-7.804c0-.807-.655-1.462-1.462-1.462H6.88c-.807 0-1.462.655-1.462 1.462v11.404c0 .807.655 1.462 1.462 1.462h10.19l-1.965 2.938H3.04V8.189c0-1.025.836-1.862 1.862-1.862Zm1.978 19.23a.234.234 0 0 1-.233-.233V13.927c0-.123.102-.232.233-.232h12.102c.123 0 .225.101.225.232v11.404a.233.233 0 0 1-.225.233H6.88v-.008Zm12.102 1.236c.807 0 1.462-.655 1.462-1.462v-1.375l1.498-2.247.734.756c.233.24.648.24.88 0l.844-.865.85.865a.623.623 0 0 0 .88 0l.845-.865.85.865a.623.623 0 0 0 .437.182.61.61 0 0 0 .436-.182l.75-.763 5.352 8.036H16.59l1.963-2.938h.429v-.007Zm3.665-6.139 2.91-4.363a.17.17 0 0 1 .152-.08c.007-.015.102.007.153.073l2.909 4.363-.487.495-.851-.866a.623.623 0 0 0-.88 0l-.844.866-.85-.866a.62.62 0 0 0-.444-.181.628.628 0 0 0-.444.181l-.844.858-.48-.48Zm13.659 9.077-3.375-5.062 2.924-4.109a.176.176 0 0 1 .145-.08c.015-.007.102.007.145.08l6.11 9.164h-5.95v.007Zm-5.07 12.8H16.764v-4.153h14.48v4.153h-.008Zm13.724-7.244a1.858 1.858 0 0 1-1.855 1.855H4.902a1.858 1.858 0 0 1-1.855-1.855v-4.32h41.92v4.32h-.007Z" fill="#fff"/><path d="M22.858 34.669h2.291a.618.618 0 0 0 0-1.236h-2.29a.619.619 0 0 0 0 1.236Zm-12.85-17.753H9.65v-.669a.618.618 0 1 0-1.236 0v.67h-.357a.618.618 0 1 0 0 1.235h.357v4.859a.618.618 0 1 0 1.236 0v-4.858h.356a.618.618 0 1 0 0-1.237Zm4.101 2.473h-.356v-3.135a.618.618 0 1 0-1.237 0v3.135h-.356a.618.618 0 1 0 0 1.236h.356v2.393a.618.618 0 0 0 1.237 0v-2.393h.356a.618.618 0 0 0 .618-.618.613.613 0 0 0-.618-.618Zm3.695-1.68h-.357v-1.462a.618.618 0 1 0-1.236 0v1.462h-.356a.618.618 0 1 0 0 1.236h.356v4.066a.618.618 0 1 0 1.236 0v-4.066h.357a.618.618 0 0 0 0-1.236Z" fill="#fff"/></svg>