<svg width="20" height="15" fill="none" xmlns="http://www.w3.org/2000/svg"><path d="M18.75 14.146H1.25c-.69 0-1.25-.575-1.25-1.283V1.308C0 .6.56.025 1.25.025h17.5C19.44.025 20 .6 20 1.308v11.555c0 .708-.56 1.284-1.25 1.284Z" fill="#E79922"/><path d="M18.75 14.146H1.25c-.702 0-1.25-.563-1.25-1.283 0-.204.095-.397.255-.518L9.63 5.926a.61.61 0 0 1 .74 0l9.374 6.42c.16.12.256.313.256.517 0 .72-.55 1.284-1.25 1.284Z" fill="#F6A21E"/><path d="M18.75.025H1.25C.548.025 0 .588 0 1.308c0 .204.095.397.255.518l9.38 6.916c.217.16.51.16.728 0l9.38-6.916A.646.646 0 0 0 20 1.308c0-.72-.55-1.283-1.25-1.283Z" fill="#F1CA2D"/></svg>