<svg width="100" height="100" fill="none" xmlns="http://www.w3.org/2000/svg"><path d="M39.583 68.75 68.75 50 39.583 31.25v37.5ZM50 91.667c-5.764 0-11.18-1.095-16.25-3.284-5.07-2.186-9.48-5.154-13.23-8.904s-6.717-8.16-8.903-13.23C9.427 61.182 8.333 55.765 8.333 50c0-5.763 1.095-11.18 3.284-16.25 2.186-5.069 5.154-9.478 8.904-13.228s8.16-6.72 13.229-8.909C38.82 9.426 44.236 8.333 50 8.333c5.764 0 11.18 1.093 16.25 3.28 5.07 2.188 9.48 5.158 13.23 8.908 3.75 3.75 6.717 8.16 8.903 13.229 2.19 5.07 3.284 10.486 3.284 16.25 0 5.764-1.095 11.18-3.284 16.25-2.186 5.07-5.154 9.48-8.904 13.23s-8.16 6.717-13.23 8.903c-5.068 2.19-10.485 3.284-16.25 3.284Z" fill="#000"/></svg>