<svg width="23" height="23" fill="none" xmlns="http://www.w3.org/2000/svg"><path d="M3.408 19.337c1.074 1.075 2.803 1.075 6.26 1.075h3.666c3.457 0 5.186 0 6.259-1.075 1.074-1.073 1.074-2.802 1.074-6.259 0-1.072 0-1.978-.032-2.75M19.593 6.82c-1.073-1.074-2.802-1.074-6.259-1.074H9.667c-3.456 0-5.185 0-6.259 1.074-1.074 1.074-1.074 2.802-1.074 6.26 0 1.072 0 1.977.032 2.75m9.135-13.75c1.729 0 2.592 0 3.13.536.536.537.536 1.401.536 3.13m-6.796-3.13c-.537.537-.537 1.401-.537 3.13" stroke="#0085C0" stroke-width="1.078" stroke-linecap="round"/><path d="M11.5 16.134c1.013 0 1.834-.684 1.834-1.527 0-.844-.82-1.528-1.834-1.528-1.012 0-1.833-.684-1.833-1.529 0-.843.82-1.527 1.833-1.527m0 6.11c-1.012 0-1.833-.683-1.833-1.526m1.833 1.527v.611m0-6.722v-.611m0 .611c1.013 0 1.834.684 1.834 1.527" stroke="#0085C0" stroke-width="1.078" stroke-linecap="round"/></svg>