<svg width="302" height="199" fill="none" xmlns="http://www.w3.org/2000/svg"><path d="M253.956 54.438 69.91 110.93 38.6 69.741 302 0l-48.044 54.438Z" fill="url(#a)"/><path d="M225.408 119.674 118.69 195.14l-42.94-56.457 187.625-68.94-37.967 49.931Z" fill="url(#b)"/><path d="M150.999 21.512C79.17 21.512 18.655 12.416 0 0l38.598 50.767C55.753 59.327 99.588 65.419 151 65.419c51.412 0 95.247-6.091 112.402-14.652L301.999 0c-18.655 12.416-79.17 21.512-151 21.512Z" fill="url(#c)"/><path d="M151 84.378c-51.412 0-95.246-6.091-112.4-14.652l37.15 48.864c13.156 5.474 42.283 9.295 76.303 9.295 31.573 0 59.2-3.338 73.382-8.211l37.993-49.948C246.247 78.286 202.412 84.378 151 84.378Z" fill="url(#d)"/><path d="M118.69 195.123c10.602 2.163 21.702 3.179 32.836 3.004 10.681.138 21.332-.774 31.573-2.703l42.335-55.657c-14.182 4.89-41.703 8.211-73.382 8.211-33.994 0-63.146-3.821-76.302-9.312l42.94 56.457Z" fill="url(#e)"/><defs><linearGradient id="a" x1="54.675" y1="90.202" x2="198.285" y2="-17.305" gradientUnits="userSpaceOnUse"><stop offset=".24" stop-color="#66BC4D"/><stop offset="1" stop-color="#FC9B00"/></linearGradient><linearGradient id="b" x1="99.272" y1="165.768" x2="163.655" y2="76.871" gradientUnits="userSpaceOnUse"><stop stop-color="#007DB7"/><stop offset="1" stop-color="#2F9C18"/></linearGradient><linearGradient id="c" x1="8.604" y1="-13.968" x2="221.096" y2="117.106" gradientUnits="userSpaceOnUse"><stop stop-color="#FCF529"/><stop offset="1" stop-color="#FCC729"/></linearGradient><linearGradient id="d" x1="49.808" y1="61.164" x2="199.665" y2="164.44" gradientUnits="userSpaceOnUse"><stop offset=".01" stop-color="#B8E93F"/><stop offset="1" stop-color="#66BC4D"/></linearGradient><linearGradient id="e" x1="95.72" y1="124.598" x2="160.408" y2="214.862" gradientUnits="userSpaceOnUse"><stop stop-color="#00ABEB"/><stop offset=".21" stop-color="#00A7E6"/><stop offset=".46" stop-color="#009AD8"/><stop offset=".73" stop-color="#0085C0"/><stop offset="1" stop-color="#006AA1"/></linearGradient></defs></svg>