<svg width="147" height="42" fill="none" xmlns="http://www.w3.org/2000/svg"><g filter="url(#a)"><path d="M77 0H33C26.464-.082 11.975.1 4 0c5.029 12.309 24.088 33.159 64.5 33.5 40.412.341 61.062-13.589 74-33.5C119.03-.226 95.494 0 77 0Z" fill="url(#b)"/></g><path d="M95.85 12.14c.899.158 1.614.59 2.144 1.295.545.706.817 1.577.817 2.614a4.4 4.4 0 0 1-.347 1.771 3.596 3.596 0 0 1-.96 1.383 4.031 4.031 0 0 1-1.49.886c-.572.216-1.211.324-1.919.324-1.034 0-1.94-.224-2.715-.67a4.23 4.23 0 0 1-1.756-1.814l.96-.93a3.436 3.436 0 0 0 1.306 1.513c.585.374 1.32.561 2.205.561 1.02 0 1.824-.266 2.409-.799.585-.518.878-1.267.878-2.246 0-.994-.306-1.779-.919-2.355-.612-.576-1.497-.864-2.654-.864h-.51v-1.253h.551c1.048 0 1.851-.252 2.409-.756.558-.518.837-1.188.837-2.009 0-.432-.075-.813-.225-1.145a2.17 2.17 0 0 0-.632-.82 2.527 2.527 0 0 0-.94-.519 3.742 3.742 0 0 0-1.163-.173c-.776 0-1.463.187-2.062.562a3.408 3.408 0 0 0-1.327 1.512l-.898-.907c.163-.375.394-.713.694-1.016.3-.316.64-.583 1.02-.799a5.005 5.005 0 0 1 1.266-.497c.463-.13.94-.194 1.43-.194.625 0 1.197.094 1.714.28.53.188.987.454 1.368.8.381.331.674.734.878 1.21.218.475.327 1 .327 1.577 0 .432-.062.85-.184 1.252-.123.39-.3.742-.531 1.059a3.282 3.282 0 0 1-.858.778c-.326.201-.7.33-1.122.388Z" fill="url(#c)"/><path d="M108.001 16.76a1.6 1.6 0 0 1 .84.22c.244.146.431.352.56.618.134.265.201.576.201.933 0 .357-.067.672-.201.947-.134.27-.323.48-.567.631-.24.147-.517.22-.833.22-.297 0-.553-.062-.769-.185a1.159 1.159 0 0 1-.474-.536v.673h-.438V15.23h.431v2.258c.105-.238.266-.419.481-.542.216-.124.472-.186.769-.186Zm-.051 3.198c.374 0 .666-.125.876-.377.211-.252.316-.602.316-1.05 0-.444-.105-.79-.316-1.036-.21-.247-.505-.371-.883-.371s-.67.124-.876.37c-.206.248-.309.598-.309 1.05 0 .454.103.804.309 1.05.206.243.5.364.883.364ZM115.016 16.843l-1.695 3.795c-.167.375-.378.65-.632.823-.248.179-.562.305-.94.378l-.086-.33c.344-.078.603-.178.775-.302.177-.123.326-.318.445-.583l.151-.336-1.537-3.445h.467l1.3 3.02 1.307-3.02h.445Z" fill="#000"/><circle cx="102.146" cy="20.1" r=".348" fill="#000"/><path d="M82.37 20.239c-.612 0-1.155-.153-1.628-.46a3.807 3.807 0 0 1-1.127-1.182v4.466h-.946V12.851h.849v1.405c.296-.454.681-.82 1.154-1.1a2.919 2.919 0 0 1 1.545-.43c.5 0 .96.106 1.377.32.418.204.78.482 1.086.834.306.344.542.742.71 1.197.175.454.263.923.263 1.405 0 .51-.078.993-.236 1.447a3.625 3.625 0 0 1-.682 1.197 3.229 3.229 0 0 1-1.043.82 2.97 2.97 0 0 1-1.322.293Zm-.264-.835c.39 0 .742-.084 1.057-.25.325-.167.598-.385.82-.654.233-.279.409-.59.53-.933.12-.352.18-.714.18-1.085a3.072 3.072 0 0 0-.78-2.045 2.687 2.687 0 0 0-.861-.64 2.389 2.389 0 0 0-1.058-.237c-.24 0-.496.051-.765.153-.26.093-.505.223-.737.39a2.623 2.623 0 0 0-.585.57c-.157.214-.255.441-.292.682v2.226c.111.26.25.501.417.724.177.222.371.417.585.584.222.158.459.283.71.376.25.093.51.139.779.139ZM66.831 20.239a3.508 3.508 0 0 1-1.447-.292 3.734 3.734 0 0 1-1.14-.821 3.755 3.755 0 0 1-.738-1.197 3.928 3.928 0 0 1-.264-1.433c0-.51.088-.992.264-1.447.186-.454.436-.853.751-1.196a3.733 3.733 0 0 1 1.141-.821 3.337 3.337 0 0 1 1.433-.306c.52 0 .997.102 1.433.306.446.204.826.477 1.141.82.325.344.575.743.752 1.197.185.455.278.937.278 1.447 0 .501-.088.979-.264 1.433a3.634 3.634 0 0 1-.752 1.197 3.524 3.524 0 0 1-1.14.82 3.507 3.507 0 0 1-1.448.293Zm-2.63-3.729c0 .408.07.788.21 1.14.138.344.324.65.556.92.241.259.52.463.835.611.324.149.668.223 1.03.223.361 0 .7-.074 1.015-.223.325-.157.608-.366.849-.626a3.07 3.07 0 0 0 .779-2.073c0-.399-.07-.774-.209-1.127a2.862 2.862 0 0 0-.57-.932 2.557 2.557 0 0 0-.849-.626 2.241 2.241 0 0 0-1.016-.237c-.361 0-.7.08-1.015.237a2.6 2.6 0 0 0-.835.626 3.031 3.031 0 0 0-.57.946 3.08 3.08 0 0 0-.21 1.141ZM52.4 19.752c-.056.028-.14.065-.25.111a3.745 3.745 0 0 1-.362.14c-.14.046-.297.087-.473.125a2.696 2.696 0 0 1-.557.055c-.204 0-.399-.028-.584-.083a1.425 1.425 0 0 1-.487-.25 1.339 1.339 0 0 1-.46-1.058v-5.19h-1v-.751h1v-2.449h.947v2.449h1.67v.751h-1.67v4.925c.019.27.111.469.278.599.176.12.376.18.599.18.268 0 .505-.041.709-.125.204-.092.334-.157.39-.194l.25.765ZM39.29 20.1l-2.95-7.25h.975l2.49 6.373 2.505-6.372h.918l-2.95 7.249h-.988Z" fill="#000"/><path fill-rule="evenodd" clip-rule="evenodd" d="M59.26 10.949a.484.484 0 0 1 .148.669 8.672 8.672 0 1 0 15.89 5.974.484.484 0 1 1 .958.146c-.705 4.63-4.703 8.177-9.53 8.177-5.325 0-9.641-4.317-9.641-9.642 0-1.904.553-3.68 1.506-5.176a.484.484 0 0 1 .67-.148Z" fill="url(#d)"/><path d="M61.49 7.33a.323.323 0 0 1 .463.312l-.438 6.383c-.023.332-.472.417-.614.115l-1.365-2.9a.323.323 0 0 0-.267-.184l-3.466-.275c-.328-.026-.412-.467-.117-.612l5.803-2.84Z" fill="url(#e)"/><path d="M65.008 4.041a.299.299 0 0 1 .242-.341L67 3.38a.29.29 0 0 1 .34.235.299.299 0 0 1-.242.341l-1.75.32a.29.29 0 0 1-.34-.235ZM64.407 3.118a.276.276 0 0 1-.068-.4l1.026-1.441a.308.308 0 0 1 .413-.076c.13.094.16.276.068.405l-1.033 1.437a.29.29 0 0 1-.406.075ZM60.416 2.173a.3.3 0 0 1 .41-.076l1.436.984c.133.091.163.272.068.404a.3.3 0 0 1-.41.075l-1.436-.984a.285.285 0 0 1-.068-.403ZM64.76 5.115a.3.3 0 0 1 .41-.076l1.436.984c.132.091.162.272.067.404a.3.3 0 0 1-.41.075l-1.436-.984a.285.285 0 0 1-.068-.403ZM62.96 2.653 62.67.948a.295.295 0 0 1 .24-.337c.16-.03.31.074.336.231l.289 1.706a.295.295 0 0 1-.24.336.286.286 0 0 1-.335-.231Z" fill="#5C6ABF"/><path d="m65.78 1.204-1.374 1.91a.274.274 0 0 1-.068-.398l1.028-1.436a.31.31 0 0 1 .413-.076Z" fill="#5C6ABF"/><defs><linearGradient id="b" x1="17.808" y1="-86.438" x2="146.285" y2="-31.933" gradientUnits="userSpaceOnUse"><stop stop-color="#F6A21E"/><stop offset="1" stop-color="#F1CA2D"/></linearGradient><linearGradient id="c" x1="94.217" y1="4.795" x2="94.217" y2="20.413" gradientUnits="userSpaceOnUse"><stop stop-color="#56295A"/><stop offset="1" stop-color="#5C6ABF"/></linearGradient><linearGradient id="d" x1="57.408" y1="15.404" x2="73.583" y2="5.665" gradientUnits="userSpaceOnUse"><stop/><stop offset=".807" stop-color="#3D3D3D" stop-opacity="0"/></linearGradient><linearGradient id="e" x1="60.859" y1="8.271" x2="55.574" y2="16.128" gradientUnits="userSpaceOnUse"><stop stop-color="#5C6ABF"/><stop offset="1" stop-color="#56295A"/></linearGradient><filter id="a" x="0" y="-.1" width="146.5" height="41.606" filterUnits="userSpaceOnUse" color-interpolation-filters="sRGB"><feFlood flood-opacity="0" result="BackgroundImageFix"/><feColorMatrix in="SourceAlpha" values="0 0 0 0 0 0 0 0 0 0 0 0 0 0 0 0 0 0 127 0" result="hardAlpha"/><feOffset dy="4"/><feGaussianBlur stdDeviation="2"/><feColorMatrix values="0 0 0 0 0 0 0 0 0 0 0 0 0 0 0 0 0 0 0.25 0"/><feBlend in2="BackgroundImageFix" result="effect1_dropShadow_407_216"/><feBlend in="SourceGraphic" in2="effect1_dropShadow_407_216" result="shape"/></filter></defs></svg>