<svg width="310" height="137" fill="none" xmlns="http://www.w3.org/2000/svg"><g clip-path="url(#a)"><path d="M299.818.887H9.273A9.273 9.273 0 0 0 0 10.16v117.454a9.272 9.272 0 0 0 9.273 9.273h290.545a9.273 9.273 0 0 0 9.273-9.273V10.16a9.273 9.273 0 0 0-9.273-9.273Z" fill="#F3F4FF"/><path d="M230.273 81.25c17.924 0 32.454-14.53 32.454-32.454s-14.53-32.454-32.454-32.454c-17.925 0-32.455 14.53-32.455 32.454 0 17.925 14.53 32.455 32.455 32.455Z" fill="#CBDB2F"/><path d="M55.745 56.523V43.06h8.227v13.464h3.672V39.83H52.072v16.694h3.672Zm32.819-2.856c-.816 0-1.391-.612-1.391-1.666V45.78c0-4.08-3.097-6.392-7.721-6.392-2.411 0-4.42.476-6.086 1.428v3.23a9.886 9.886 0 0 1 5.27-1.496c3.264 0 4.896 1.224 4.896 3.638v.918c-1.53-.85-3.332-1.292-5.338-1.292-1.87 0-3.468.476-4.76 1.462-1.292.952-1.938 2.312-1.938 4.08 0 1.734.578 3.128 1.768 4.114 1.19.986 2.689 1.496 4.488 1.496 2.584 0 4.624-.85 6.154-2.584.442 1.598 1.632 2.38 3.502 2.38.918 0 1.632-.17 2.142-.544V53.43a1.924 1.924 0 0 1-.986.238Zm-5.032-1.87a6.76 6.76 0 0 1-4.76 2.006c-2.142 0-3.604-.884-3.604-2.652 0-1.632 1.462-2.584 3.91-2.584 1.564 0 3.06.408 4.454 1.19v2.04Zm19.269-12.41c-2.584 0-4.556.918-5.95 2.72V39.83h-3.672v23.495h3.671v-9.079c1.391 1.802 3.367 2.72 5.951 2.72 2.346 0 4.284-.85 5.81-2.55 1.534-1.7 2.282-3.774 2.282-6.222 0-2.482-.748-4.556-2.278-6.256-1.53-1.7-3.468-2.55-5.814-2.55Zm-.99 3.23c1.534 0 2.826.544 3.846 1.632 1.02 1.054 1.53 2.38 1.53 3.944 0 1.53-.51 2.856-1.53 3.944-1.02 1.054-2.312 1.598-3.842 1.598a5.75 5.75 0 0 1-4.965-2.958V45.61a5.645 5.645 0 0 1 4.961-2.992Zm20.03 13.906V43.06h5.61v-3.23h-14.93v3.23h5.648v13.464h3.672Zm12.629 0v-6.936h8.466v6.936h3.672V39.83h-3.672v6.528h-8.469V39.83h-3.669v16.694h3.672Zm16.187-8.364c0 2.618.884 4.726 2.652 6.358 1.802 1.632 3.978 2.448 6.562 2.448s4.624-.544 6.154-1.632V52.24a10.32 10.32 0 0 1-5.372 1.496c-3.4 0-5.848-1.666-6.29-4.488h12.784v-.952c0-3.026-1.051-5.78-3.536-7.548-1.224-.918-2.686-1.36-4.386-1.36-2.55 0-4.59.85-6.188 2.516-1.598 1.666-2.38 3.774-2.38 6.256Zm3.74-1.7c.238-2.176 1.972-3.978 4.658-3.978 1.36 0 2.414.408 3.196 1.224.782.816 1.156 1.734 1.19 2.754h-9.044Zm26.529-7.072c-2.584 0-4.556.918-5.95 2.72V39.83h-3.672v23.495h3.672v-9.079c1.394 1.802 3.369 2.72 5.95 2.72 2.349 0 4.284-.85 5.814-2.55 1.53-1.7 2.278-3.774 2.278-6.222 0-2.482-.748-4.556-2.278-6.256-1.53-1.7-3.471-2.55-5.814-2.55Zm-.986 3.23c1.53 0 2.822.544 3.842 1.632 1.02 1.054 1.53 2.38 1.53 3.944 0 1.53-.51 2.856-1.53 3.944-1.02 1.054-2.312 1.598-3.842 1.598a5.746 5.746 0 0 1-4.964-2.958V45.61a5.65 5.65 0 0 1 4.964-2.992Zm36.349 13.906V50.07h3.264c1.929 0 3.462-.495 4.6-1.509 1.137-1.014 1.706-2.324 1.706-3.931 0-1.608-.569-2.894-1.706-3.907-1.138-1.014-2.671-1.509-4.6-1.509h-7.714v17.31h4.45Zm0-13.55h2.943c1.311 0 2.127.618 2.127 1.706s-.841 1.731-2.127 1.731h-2.943v-3.437Zm15.789 13.55V49.23c.494-.89 1.706-1.508 3.19-1.508.469 0 .964.074 1.483.197V43.69a2.913 2.913 0 0 0-.544-.05c-.89 0-1.731.248-2.522.767-.766.495-1.31 1.039-1.607 1.607v-2.052h-4.377v12.561h4.377Zm15.875-6.28c0 1.656-1.159 2.868-2.767 2.868-1.607 0-2.769-1.212-2.769-2.868 0-1.608 1.162-2.869 2.769-2.869 1.608 0 2.767 1.261 2.767 2.869Zm2.302 4.723c1.336-1.261 2.003-2.844 2.003-4.723 0-1.88-.667-3.437-2.003-4.699-1.335-1.26-3.016-1.903-5.069-1.903-2.052 0-3.733.642-5.069 1.904a6.196 6.196 0 0 0-2.003 4.698c0 1.879.668 3.462 2.003 4.723 1.336 1.26 3.017 1.879 5.069 1.879 2.053 0 3.734-.618 5.069-1.88Z" fill="#04133A"/><path fill-rule="evenodd" clip-rule="evenodd" d="m98.226 81.251-8.59 6.015v4.828l8.59-6.07 8.577 6.07v-4.828l-8.574-6.015h-.003Z" fill="#ED1944"/><path fill-rule="evenodd" clip-rule="evenodd" d="M183.377 99.874c-1.174 0-2.281.269-3.254.763l-1.169-7.217h-2.435v19.618c.119.188.215.389.287.6.09.283.235.546.427.772a8.721 8.721 0 0 0 12.104 0c3.338-3.254 3.338-8.846 0-12.1a8.64 8.64 0 0 0-5.96-2.436Zm-85.136-.012c3.904 0 6.723 3.084 6.723 6.892v10.098h-3.418v-9.489c0-2.111-1.762-3.833-3.935-3.833a3.973 3.973 0 0 0-2.674 1.027v12.295h-3.415V93.417h2.488l.98 7.22a7.176 7.176 0 0 1 3.251-.775Zm46.988 1.941-3.084 2.228v5.777c0 1.7 1.372 3.579 3.115 3.579v3.422h-.253c-3.678 0-6.667-3.419-6.667-7.001V97.16h2.389l.714 2.773h3.511l.275 1.87Zm61.862-1.833h-3.545v11.89c-.724.659-1.611 1.286-2.618 1.286-2.17 0-3.907-1.978-3.907-4.095V99.97h-3.311v9.693c0 3.808 2.689 7.155 6.59 7.155 1.184 0 2.241-.55 3.221-1.057l.025-.012v.111c0 2.584-2.09 4.68-4.739 4.68h-1.255v3.431h1.515c4.584 0 8.024-3.635 8.024-8.108V99.97Zm-36.195 12.765a2.418 2.418 0 0 0-.714 1.7c0 .637.263 1.258.717 1.709a2.546 2.546 0 0 0 3.493 0 2.408 2.408 0 0 0 .72-1.706 2.41 2.41 0 0 0-.717-1.7 2.516 2.516 0 0 0-3.496 0l-.003-.003Zm-39.542-3.14c1.005 0 1.815.825 1.815 1.845s-.81 1.845-1.815 1.845h-5.869v3.567h6.126c2.939 0 5.322-2.423 5.322-5.412s-2.38-5.412-5.322-5.412h-1.864a1.235 1.235 0 0 1-1.137-.772 1.237 1.237 0 0 1-.09-.474 1.23 1.23 0 0 1 .354-.879 1.245 1.245 0 0 1 .873-.369h4.93V99.97h-5.187c-2.614 0-4.735 2.154-4.735 4.812 0 2.658 2.121 4.813 4.735 4.813h1.864Zm-15.961 7.27a8.542 8.542 0 0 1-8.562-8.5 8.54 8.54 0 0 1 8.562-8.503 8.538 8.538 0 0 1 8.555 8.5 8.542 8.542 0 0 1-8.555 8.503Zm-4.797-8.5c0-2.631 2.151-4.767 4.797-4.767 2.643 0 4.794 2.133 4.794 4.764 0 2.627-2.151 4.763-4.794 4.763a4.786 4.786 0 0 1-4.797-4.76Zm52.02-1.753c0-3.585 2.992-6.503 6.667-6.503h.538v3.425h-.288c-1.743 0-3.493 1.378-3.493 3.078v10.219h-3.427l.003-10.219Zm-1.635-3.647a8.627 8.627 0 0 0-6.646-3.103c-4.72 0-8.562 3.74-8.562 8.345s3.842 8.611 8.562 8.611c2.272 0 4.34-.871 5.873-2.287l-2.658-2.649a4.837 4.837 0 0 1-3.215 1.215c-2.646 0-4.797-2.309-4.797-4.887 0-2.584 2.151-4.68 4.797-4.68 1.101 0 2.111.365 2.921.977l-3.616 2.952v4.225l7.341-5.594v-3.125Zm19.092 1.786v7.119c1.879 1.666 4.791 1.616 6.605-.155 1.874-1.823 1.874-4.985 0-6.812a4.881 4.881 0 0 0-6.605-.152Z" fill="#04133A"/></g><defs><clipPath id="a"><path fill="#fff" transform="translate(0 .887)" d="M0 0h309.091v136H0z"/></clipPath></defs></svg>