<svg width="24" height="24" viewBox="0 0 24 24" fill="none" xmlns="http://www.w3.org/2000/svg">
<path d="M19.84 7.26509L12 13.0351L4.15999 7.26509M3.23499 5.35509C2.96977 5.35509 2.71542 5.46044 2.52788 5.64798C2.34034 5.83552 2.23499 6.08987 2.23499 6.35509V17.6601C2.23499 17.9253 2.34034 18.1797 2.52788 18.3672C2.71542 18.5547 2.96977 18.6601 3.23499 18.6601H20.765C21.0302 18.6601 21.2846 18.5547 21.4721 18.3672C21.6596 18.1797 21.765 17.9253 21.765 17.6601V6.34009C21.765 6.07487 21.6596 5.82052 21.4721 5.63298C21.2846 5.44544 21.0302 5.34009 20.765 5.34009H3.23499V5.35509Z" stroke="white" stroke-linecap="round" stroke-linejoin="round"/>
</svg>
