<svg width="32" height="32" fill="none" xmlns="http://www.w3.org/2000/svg"><path d="M5.381 13.818a8.318 8.318 0 0 1 2.432-3.78c-.622-.497 0-3.584 0-3.584s2.484 1.1 2.928 1.615c0 0 1.916-2.325 7.47-2.325C23.766 5.744 29 10.039 29 15.77s-4.153 7.56-4.153 7.56a13.315 13.315 0 0 1-.993 2.927h-2.2a14.252 14.252 0 0 1-.94-1.686s-1.757.214-3.017.214a15.367 15.367 0 0 1-2.644-.284 4.269 4.269 0 0 1-.622 1.756h-2.395c-.745-.638-1.118-2.644-1.118-2.644s-6.033-2.732-7.311-4.366c-.693-1.295-.604-4.17-.604-4.17a5.295 5.295 0 0 1 2.378-1.26h0Z" stroke="#000" stroke-width=".552" stroke-linecap="round" stroke-linejoin="round"/><path d="M13.03 9.186a7.699 7.699 0 0 1 4.897-1.437c1.91-.031 3.78.56 5.324 1.686" stroke="#000" stroke-width=".552" stroke-linecap="round" stroke-linejoin="round"/><path d="M7.741 14.69a.5.5 0 1 0 0-1 .5.5 0 0 0 0 1Z" fill="#000"/></svg>