<svg width="23" height="23" viewBox="0 0 23 23" fill="none" xmlns="http://www.w3.org/2000/svg">
<path d="M18.6872 7.55291L11.5006 12.8421L4.3139 7.55291M3.46598 5.80208C3.22287 5.80208 2.98971 5.89866 2.8178 6.07057C2.64589 6.24247 2.54932 6.47563 2.54932 6.71875V17.0817C2.54932 17.3248 2.64589 17.5579 2.8178 17.7298C2.98971 17.9018 3.22287 17.9983 3.46598 17.9983H19.5351C19.7783 17.9983 20.0114 17.9018 20.1833 17.7298C20.3552 17.5579 20.4518 17.3248 20.4518 17.0817V6.705C20.4518 6.46188 20.3552 6.22872 20.1833 6.05682C20.0114 5.88491 19.7783 5.78833 19.5351 5.78833H3.46598V5.80208Z" stroke="#66BC4D" stroke-width="0.718844" stroke-linecap="round" stroke-linejoin="round"/>
</svg>
