<svg width="33" height="32" fill="none" xmlns="http://www.w3.org/2000/svg"><path d="M27.812 5.667H4.48c-.737 0-1.333.597-1.333 1.333v18c0 .736.596 1.333 1.333 1.333h23.333c.737 0 1.333-.596 1.333-1.333V7c0-.736-.596-1.333-1.333-1.333Z" stroke="#000" stroke-width=".552" stroke-linecap="round" stroke-linejoin="round"/><path d="M12.372 11.2a2.4 2.4 0 0 0 0 4.8H14a2.393 2.393 0 0 1 2.393 2.4A2.392 2.392 0 0 1 14 20.8m2.146-8.8c-.666-.553-1.373-.807-2.98-.807h-.793M10.205 20c.667.553 1.38.807 2.98.807H14M13.185 22V10m11.194 3.6h4.766v4.8H24.38a1.9 1.9 0 0 1-1.9-1.9v-1a1.9 1.9 0 0 1 1.9-1.9Z" stroke="#000" stroke-width=".552" stroke-linecap="round" stroke-linejoin="round"/><path d="M24.459 16.534a.533.533 0 1 0 0-1.067.533.533 0 0 0 0 1.066Z" fill="#000"/></svg>