<svg width="30" height="30" fill="none" xmlns="http://www.w3.org/2000/svg"><path d="M2.813 8.504a2 2 0 0 1 2-2h20.375a2 2 0 0 1 2 2v11.535H2.813V8.504Z" fill="#FF4B55"/><path d="M2.813 18.984h24.375v2.989c0 .841-.683 1.523-1.524 1.523H7.324a4.512 4.512 0 0 1-4.511-4.512Z" fill="#73AF00"/><path d="M4.813 23.496a2 2 0 0 1-2-2V8.504a2 2 0 0 1 2-2h3.625v16.992H4.812Z" fill="#F0F0F0"/><path d="M7.734 18.288H7.5v.433h.234v-.433ZM3.985 9.66H3.75v.434h.235v-.433ZM3.75 10.964h.118v.22h.117v.216h.35v-.216h.119v-.22h.114v-.29h-.114v-.219h-.119v-.213h-.35v.213h-.117v.22H3.75v.289Zm.235-.217H4.1v-.144h.12v.144h.114v.145h-.114v.147h-.12v-.147h-.116v-.145ZM3.985 11.545H3.75v.436h.235v-.436ZM5.86 9.66h-.235v.434h.235v-.433ZM5.274 10.242v.213h-.117v.22h-.118v.289h.118v.22h.117v.216h.35v-.216h.235v.216h.352v-.216h.12v-.22h.114v-.289H6.33v-.22h-.119v-.213H5.86v.213h-.235v-.213h-.35Zm.585.505h.118v-.144h.118v.144h.116v.145h-.116v.147h-.118v-.147H5.86v-.145Zm-.235.145H5.51v.147h-.12v-.147h-.115v-.145h.115v-.144h.12v.144h.115v.145ZM3.985 16.621H3.75v.289h.235v-.289ZM3.985 13.359H3.75v.289h.235v-.29ZM5.86 11.545h-.235v.436h.235v-.436ZM3.985 18.288H3.75v.433h.235v-.433ZM3.985 15.136v-.22H3.75v.437h.235v-.217ZM3.985 22.278H3.75v.433h.235v-.433ZM7.734 22.278H7.5v.433h.234v-.433ZM3.985 20.175H3.75v.433h.235v-.433ZM5.86 22.278h-.235v.433h.235v-.433ZM7.145 10.239v.216H7.03v.22h-.118v.289h.118v.216h.116v.217h.353v-.217h.117v-.216h.116v-.29h-.116v-.219h-.117v-.216h-.353Zm.353.652H7.38v.145h-.118v-.144h-.117v-.148h.117v-.141h.118v.14h.118v.149ZM7.734 7.558H7.5v.433h.234v-.433ZM3.985 7.558H3.75v.433h.235v-.433ZM7.734 11.545H7.5v.436h.234v-.436ZM7.734 9.66H7.5v.434h.234v-.433ZM5.86 7.558h-.235v.433h.235v-.433ZM4.921 21.19H4.69v.36h.232v-.36ZM5.274 15.136v-.22h-.235v.437h.235v-.217Z" fill="#FF4B55"/><path d="M6.564 7.266v.364h-.233v.36h-.235v.365H5.86v.361h-.235v-.361H5.39v-.364h-.233V7.63h-.234v-.364h-.235v.364h-.234v.36H4.22v.365h-.236v.361H3.75v.364h.235v.361h.236v.364h.233v.365h.235v.36h.232v-.36h.236v-.365h.233v-.364h.235v-.36h.235v.36h.236v.364h.232v.365h.236v.36h.234v-.36h.234v-.365h.235v-.364H7.5v-.36h.234v-.365h-.232v-.361h-.235v-.364h-.235V7.63h-.234v-.364h-.234ZM5.39 9.08h-.233v.361h-.236v.364h-.233v-.364h-.234v-.36H4.22v-.365h.232v-.361h.235V7.99h.233v.364h.236v.361h.233v.364Zm1.642-.725v.361h.235v.364h-.235v.361h-.234v.364h-.234v-.364h-.233v-.36h-.235v-.365h.235v-.361h.233v-.364h.234v.364h.234ZM5.86 14.373h-.235v.36h.235v-.36ZM5.86 15.534h-.235v.361h.235v-.36ZM6.211 15.133v.22h.234v-.437H6.21v.217ZM6.33 22.278v.36h.234V23h.234v-.361h.234v-.361h.235v-.364h.235v-.364h.232v-.361H7.5v-.365h-.233v-.36h-.235v-.365h-.234v-.36h-.234v.36h-.236v.364h-.232v.361H5.86v.365h-.235v-.365H5.39v-.36h-.233v-.365h-.236v-.36H4.69v.36h-.235v.364H4.22v.361h-.236v.365H3.75v.36h.235v.365h.236v.364h.233v.36h.235V23h.234v-.361h.234v-.361h.233v-.364h.235v-.364h.235v.364h.236v.364h.235Zm-.94-.728h-.233v.364h-.236v.364h-.233v-.364h-.234v-.364H4.22v-.361h.232v-.365h.235v-.36h.233v.36h.236v.364h.233v.362Zm.706-.361h.235v-.365h.233v-.36h.234v.36h.234v.365h.235v.36h-.235v.365h-.234v.364h-.234v-.364h-.233v-.364h-.235v-.361Z" fill="#FF4B55"/><path d="M5.978 14.806H5.86v.11h-.235v-.11h-.116v-.144h-.235v.217h.116v.11h.119v.288h-.12v.11h-.115v.217h.235v-.145h.116v-.106h.235v.106h.118v.145h.233v-.217h-.115v-.11h-.118v-.288h.118v-.11h.115v-.217h-.233v.144ZM6.798 8.716h-.234v.364h.234v-.364ZM6.798 21.19h-.234v.36h.234v-.36ZM4.335 20.027v-.216h.119v-.217h.114v-.292h-.114v-.217h-.119v-.216h-.35v.216h-.117v.217H3.75v.292h.118v.216h.117v.217h.35Zm-.35-.653h.118v-.144h.118v.144h.114v.148h-.114v.144h-.118v-.144h-.118v-.148ZM4.921 8.716H4.69v.364h.232v-.364ZM7.734 20.175H7.5v.433h.234v-.433ZM6.211 20.027v-.216h.12v-.217h.114v-.292h-.114v-.217h-.12v-.216H5.86v.216h-.235v-.216h-.351v.216h-.117v.217H5.04v.292h.118v.216h.117v.217h.35v-.216h.236v.216h.351Zm-.586-.505h-.116v.144h-.12v-.144h-.115v-.148h.116v-.144h.119v.144h.116v.148Zm.235-.148h.118v-.144h.118v.144h.115v.148h-.115v.144h-.118v-.144H5.86v-.148ZM5.86 20.175h-.235v.433h.235v-.433ZM5.86 18.288h-.235v.433h.235v-.433ZM7.734 16.621H7.5v.289h.234v-.289ZM7.498 20.027v-.216h.117v-.217h.116v-.289h-.116v-.22h-.117v-.213h-.353v.213H7.03v.22h-.118v.289h.118v.216h.116v.217h.353Zm-.353-.65h.117v-.144h.118v.144h.118v.145H7.38v.147h-.118v-.147h-.117v-.145ZM7.5 15.133v.22h.234v-.437H7.5v.217ZM7.734 13.359H7.5v.289h.234v-.29Z" fill="#FF4B55"/><path d="M7.734 12.559H7.5v-.361h-.233v-.365h-.235v-.36h-.234v-.365h-.234v.364h-.236v.361h-.232v.365H5.86v.361h-.235v-.361H5.39v-.365h-.233v-.36h-.236v-.365H4.69v.364h-.235v.361h-.235v.364h-.234v.362H3.75v.364h.235v.364h.234v.36h.235v.362h.235v-.361h.232v-.361h.236v-.364h-.236v-.437h.236v.292h.233v.581h.12v.358l-.353.003v.289h-.236v.216H4.69v.364h-.235v-.364h-.235v-.216h-.234v-.217H3.75v.653h.235v.292h.234v.251h.235v.289h-.235v.258h-.234v.288H3.75v.653h.235v-.22h.234v-.216h.235v-.36h.235v.36h.232v.217h.236v.292l.352.003v.358h-.12v.58h-.232v.292h-.236v-.44h.236v-.36h-.236v-.361h-.233v-.364h-.234v.364h-.235v.36h-.234v.362H3.75v.364h.235v.361h.236v.364h.233v.364h.235v.361h.232v-.36h.236v-.365h.233v-.364h.235v-.361h.235v.361h.236v.364h.235v.364h.233v.361h.234v-.36h.234v-.365h.235v-.364H7.5v-.361h.234v-.364H7.5v-.361h-.233v-.361h-.235v-.364h-.234v.364h-.234v.36h-.236v.362h.236v.439h-.236v-.292h-.232v-.58H5.978v-.361H6.33v-.292h.233v-.217h.234v-.361h.234v.361h.235v.217h.235v.22h.232v-.654h-.232v-.288h-.235v-.258h-.235v-.289h.235v-.25h.235v-.293h.232v-.653h-.232v.217h-.235v.217h-.235v.364h-.234v-.364h-.234v-.217h-.233v-.289H5.978v-.36H6.096v-.582h.232v-.292h.236v.437h-.236v.364h.236v.36h.234v.362h.234v-.361h.235v-.361H7.5v-.364h.234v-.364Zm-1.403 1.886v.292h.233v.251h.234v.289h-.234v.258h-.233v.288h-.353v.343H5.86v.163h-.235v-.163h-.116v-.343h-.352v-.289h-.236v-.257H4.69V14.99h.232v-.252h.236v-.292h.352v-.342h.116v-.166h.235v.163h.118v.345h.353Z" fill="#FF4B55"/></svg>