<svg width="25" height="24" fill="none" xmlns="http://www.w3.org/2000/svg"><g clip-path="url(#a)"><path opacity=".6" fill-rule="evenodd" clip-rule="evenodd" d="M12.5 24c6.627 0 12-5.373 12-12s-5.373-12-12-12S.5 5.373.5 12s5.373 12 12 12Zm2.324-15.774c-.895.372-5.194 2.157-8.547 3.632-.872.384-1.085.783-.188 1.091l.074.025c.27.093.814.281 1.371.441.811.233 1.263.087 1.734-.233.311-.212 2.758-1.836 4.523-3.007.198-.131.413.138.242.302a962.399 962.399 0 0 0-3.246 3.105c-.693.678-.19 1.035.22 1.326l.05.035c.457.327 2.559 1.717 2.976 1.992.866.572 1.417.415 1.662-.906.288-1.548.626-3.749.866-5.31.106-.685.192-1.247.247-1.577.25-1.504-.252-1.634-1.89-.955l-.094.04Z" fill="#fff"/></g><defs><clipPath id="a"><path fill="#fff" transform="translate(.5)" d="M0 0h24v24H0z"/></clipPath></defs></svg>