<svg width="25" height="24" fill="none" xmlns="http://www.w3.org/2000/svg"><g opacity=".6" clip-path="url(#a)"><path fill-rule="evenodd" clip-rule="evenodd" d="M19.113 0H5.887A5.387 5.387 0 0 0 .5 5.387v13.226A5.387 5.387 0 0 0 5.887 24h13.226a5.387 5.387 0 0 0 5.387-5.387V5.387A5.387 5.387 0 0 0 19.113 0Zm-.465 8.546a4.44 4.44 0 0 0-2.993-2.885 16.626 16.626 0 0 0-6.268 0A4.44 4.44 0 0 0 6.319 8.53a12.262 12.262 0 0 0 0 5.28 4.473 4.473 0 0 0 2.827 2.842v1.405a.566.566 0 0 0 .972.39l1.422-1.47h.923a16.69 16.69 0 0 0 3.134-.3 4.44 4.44 0 0 0 2.992-2.884c.398-1.724.418-3.514.059-5.246Zm-1.123 4.988a3.326 3.326 0 0 1-2.111 2.028c-1.096.208-2.21.297-3.325.266a.075.075 0 0 0-.059 0l-1.047 1.13-1.106 1.132a.134.134 0 0 1-.2-.02.133.133 0 0 1-.024-.072v-2.32a.083.083 0 0 0-.067-.074 3.326 3.326 0 0 1-2.111-2.029 11.123 11.123 0 0 1 0-4.771 3.325 3.325 0 0 1 2.111-2.029 15.495 15.495 0 0 1 5.82 0 3.325 3.325 0 0 1 2.111 2.029c.348 1.57.351 3.199.008 4.771v-.041Zm-2.751-.773c.187.126.367.262.54.407a.423.423 0 0 1 .1.524c-.16.354-.432.645-.773.831a1.851 1.851 0 0 1-.333.108 3.133 3.133 0 0 0-.141-.042 1.822 1.822 0 0 1-.225-.074 8.362 8.362 0 0 1-3.15-2.112 8.185 8.185 0 0 1-1.206-1.845c-.15-.316-.282-.64-.415-.965a.831.831 0 0 1 .249-.83c.18-.208.4-.375.648-.491a.416.416 0 0 1 .524.124c.316.347.595.726.831 1.13a.54.54 0 0 1-.15.732l-.174.133a.573.573 0 0 0-.133.142.373.373 0 0 0 0 .332 3.008 3.008 0 0 0 1.663 1.87.831.831 0 0 0 .432.109c.166-.022.264-.15.36-.28.054-.07.107-.141.172-.194a.507.507 0 0 1 .607 0c.154.097.299.198.445.3l.129.09Zm-2.361-4.872h.091a3.167 3.167 0 0 1 3.11 2.594c.082.3.082.565.082.831a.183.183 0 0 1-.174.216h-.013c-.115 0-.162 0-.178-.216a6.258 6.258 0 0 0-.027-.256 3.58 3.58 0 0 1-.032-.409 2.785 2.785 0 0 0-2.244-2.328c-.112-.039-.258-.044-.376-.048-.058-.002-.11-.004-.148-.01a1.961 1.961 0 0 0-.045-.005c-.11-.013-.238-.029-.238-.153a.192.192 0 0 1 .192-.216Zm2.095 3.043a.476.476 0 0 0 0 .15.175.175 0 0 0 .332 0 .722.722 0 0 0 0-.109v-.366a2.061 2.061 0 0 0-1.122-1.604 2.444 2.444 0 0 0-1.023-.266.166.166 0 0 0-.182.166.167.167 0 0 0 .09.175c.021.01.044.016.068.017l.299.05c.204.031.403.093.59.182.309.153.566.393.74.69.145.283.217.597.208.915Zm-.545-.687c.053.13.08.271.08.413.007.05.007.1 0 .15a.158.158 0 0 1-.175.116.192.192 0 0 1-.2-.192 1.922 1.922 0 0 0 0-.249.698.698 0 0 0-.258-.407.674.674 0 0 0-.207-.1c-.1-.042-.2-.042-.291-.042a.174.174 0 0 1-.142-.208.191.191 0 0 1 .2-.15 1.072 1.072 0 0 1 .993.669Z" fill="#fff"/></g><defs><clipPath id="a"><path fill="#fff" transform="translate(.5)" d="M0 0h24v24H0z"/></clipPath></defs></svg>