<svg width="48" height="48" viewBox="0 0 48 48" fill="none" xmlns="http://www.w3.org/2000/svg">
<g clip-path="url(#clip0_22_1375)">
<path d="M44 3.2002H4C2.93952 3.20147 1.92285 3.6233 1.17298 4.37317C0.423106 5.12304 0.00127029 6.13972 0 7.2002L0 36.0002C0.00127029 37.0607 0.423106 38.0774 1.17298 38.8272C1.92285 39.5771 2.93952 39.9989 4 40.0002H28V44.0002C28 44.1584 28.047 44.313 28.1349 44.4446C28.2228 44.5761 28.3477 44.6786 28.4939 44.7391C28.64 44.7997 28.8009 44.8155 28.956 44.7847C29.1112 44.7538 29.2537 44.6776 29.3656 44.5658L32 41.9314L34.6344 44.5658C34.7463 44.6776 34.8888 44.7538 35.044 44.7847C35.1991 44.8155 35.36 44.7997 35.5061 44.7391C35.6523 44.6786 35.7772 44.5761 35.8651 44.4446C35.953 44.313 36 44.1584 36 44.0002V40.0002H44C45.0605 39.9989 46.0772 39.5771 46.827 38.8272C47.5769 38.0774 47.9987 37.0607 48 36.0002V7.2002C47.9987 6.13972 47.5769 5.12304 46.827 4.37317C46.0772 3.6233 45.0605 3.20147 44 3.2002ZM25.848 18.8522C25.787 18.8241 25.7336 18.7819 25.692 18.7292C25.6505 18.6765 25.622 18.6147 25.6089 18.5488C25.5958 18.483 25.5984 18.415 25.6166 18.3503C25.6348 18.2857 25.6681 18.2263 25.7136 18.177C26.0588 17.8018 26.2505 17.3105 26.2505 16.8006C26.2505 16.2907 26.0588 15.7994 25.7136 15.4242C25.6679 15.3748 25.6346 15.3153 25.6163 15.2506C25.5981 15.1858 25.5955 15.1177 25.6087 15.0517C25.6219 14.9857 25.6505 14.9238 25.6922 14.8711C25.734 14.8183 25.7876 14.7762 25.8488 14.7482C26.311 14.5331 26.6757 14.1523 26.8707 13.6812C27.0656 13.2101 27.0767 12.683 26.9016 12.2042C26.8783 12.1412 26.8703 12.0736 26.8781 12.0068C26.886 11.9401 26.9095 11.8762 26.9468 11.8204C26.9841 11.7645 27.0341 11.7182 27.0927 11.6854C27.1513 11.6526 27.2169 11.634 27.284 11.6314C27.7936 11.61 28.2765 11.398 28.6371 11.0373C28.9978 10.6767 29.2098 10.1938 29.2312 9.6842C29.2338 9.61697 29.2523 9.55133 29.2852 9.49265C29.3181 9.43396 29.3644 9.38391 29.4204 9.34659C29.4764 9.30928 29.5404 9.28576 29.6072 9.27798C29.674 9.27019 29.7417 9.27835 29.8048 9.3018C30.2838 9.47585 30.8106 9.46422 31.2815 9.26922C31.7523 9.07421 32.1331 8.70995 32.3488 8.2482C32.3767 8.18712 32.4187 8.13354 32.4713 8.09186C32.524 8.05019 32.5858 8.02162 32.6516 8.00849C32.7175 7.99537 32.7855 7.99807 32.8501 8.01638C32.9147 8.03469 32.974 8.06808 33.0232 8.1138C33.8016 8.8298 34.9992 8.8298 35.7768 8.1138C35.8261 8.0681 35.8855 8.03477 35.9502 8.01652C36.0149 7.99828 36.083 7.99564 36.149 8.00884C36.2149 8.02204 36.2767 8.05069 36.3294 8.09244C36.3821 8.13419 36.4241 8.18784 36.452 8.249C36.6672 8.71092 37.0479 9.07534 37.5187 9.27026C37.9896 9.46518 38.5164 9.47643 38.9952 9.3018C39.0583 9.27835 39.126 9.27019 39.1928 9.27798C39.2596 9.28576 39.3236 9.30928 39.3796 9.34659C39.4356 9.38391 39.4819 9.43396 39.5148 9.49265C39.5477 9.55133 39.5662 9.61697 39.5688 9.6842C39.5905 10.1944 39.8031 10.6779 40.1645 11.0387C40.5259 11.3996 41.0097 11.6114 41.52 11.6322C41.5871 11.6347 41.6526 11.6531 41.7112 11.6859C41.7699 11.7186 41.8199 11.7648 41.8572 11.8206C41.8945 11.8764 41.918 11.9403 41.9259 12.007C41.9338 12.0736 41.9257 12.1412 41.9024 12.2042C41.7272 12.6831 41.7383 13.2104 41.9334 13.6815C42.1285 14.1527 42.4935 14.5334 42.956 14.7482C43.017 14.7763 43.0704 14.8185 43.112 14.8712C43.1535 14.9239 43.182 14.9857 43.1951 15.0516C43.2082 15.1174 43.2056 15.1854 43.1874 15.2501C43.1692 15.3147 43.1359 15.3741 43.0904 15.4234C42.7452 15.7986 42.5535 16.2899 42.5535 16.7998C42.5535 17.3097 42.7452 17.801 43.0904 18.1762C43.1361 18.2256 43.1694 18.2851 43.1877 18.3498C43.2059 18.4146 43.2085 18.4827 43.1953 18.5487C43.1821 18.6147 43.1535 18.6766 43.1118 18.7293C43.07 18.7821 43.0164 18.8242 42.9552 18.8522C42.493 19.0673 42.1283 19.4481 41.9333 19.9192C41.7384 20.3902 41.7273 20.9174 41.9024 21.3962C41.9257 21.4592 41.9337 21.5268 41.9259 21.5935C41.918 21.6603 41.8945 21.7242 41.8572 21.78C41.8199 21.8359 41.7699 21.8822 41.7113 21.915C41.6527 21.9478 41.5871 21.9663 41.52 21.969C41.0091 21.9895 40.5246 22.2017 40.163 22.5632C39.8015 22.9248 39.5893 23.4093 39.5688 23.9202C39.5662 23.9874 39.5477 24.0531 39.5148 24.1117C39.4819 24.1704 39.4356 24.2205 39.3796 24.2578C39.3236 24.2951 39.2596 24.3186 39.1928 24.3264C39.126 24.3342 39.0583 24.326 38.9952 24.3026C38.5162 24.1284 37.9893 24.1399 37.5184 24.3349C37.0475 24.5299 36.6667 24.8943 36.4512 25.3562C36.4244 25.4178 36.3828 25.4719 36.3303 25.5137C36.2777 25.5556 36.2157 25.5839 36.1496 25.5962C36.0836 25.61 36.0153 25.6077 35.9504 25.5894C35.8855 25.5712 35.8259 25.5376 35.7768 25.4914C35.4014 25.1463 34.91 24.9547 34.4 24.9547C33.89 24.9547 33.3986 25.1463 33.0232 25.4914C32.974 25.5375 32.9145 25.5711 32.8496 25.5893C32.7847 25.6076 32.7164 25.6099 32.6504 25.5962C32.5843 25.5839 32.5221 25.5556 32.4694 25.5137C32.4167 25.4719 32.375 25.4178 32.348 25.3562C32.1329 24.8941 31.7523 24.5296 31.2814 24.3347C30.8105 24.1397 30.2835 24.1286 29.8048 24.3034C29.7417 24.3268 29.674 24.335 29.6072 24.3272C29.5404 24.3194 29.4764 24.2959 29.4204 24.2586C29.3644 24.2213 29.3181 24.1712 29.2852 24.1125C29.2523 24.0539 29.2338 23.9882 29.2312 23.921C29.2107 23.4099 28.9986 22.9252 28.6371 22.5634C28.2756 22.2016 27.7911 21.9891 27.28 21.9682C27.2129 21.9657 27.1474 21.9473 27.0888 21.9145C27.0301 21.8818 26.9801 21.8356 26.9428 21.7798C26.9055 21.724 26.882 21.6601 26.8741 21.5934C26.8662 21.5268 26.8743 21.4592 26.8976 21.3962C27.0731 20.9178 27.0626 20.3909 26.8682 19.9198C26.6739 19.4487 26.3098 19.0677 25.848 18.8522ZM34.6352 33.8338L34.4 34.069V26.549C34.5072 26.549 34.6104 26.589 34.6888 26.6618C34.9225 26.8813 35.2056 27.0413 35.5141 27.1285C35.8226 27.2156 36.1476 27.2273 36.4616 27.1626C36.7753 27.1014 37.0698 26.9658 37.3203 26.7673C37.5709 26.5688 37.7702 26.3132 37.9016 26.0218C37.9468 25.9245 38.0269 25.8478 38.1261 25.8069C38.2252 25.766 38.3362 25.7639 38.4368 25.801C38.68 25.8874 38.9376 25.9258 39.196 25.9154V34.069L37.3616 32.2346C37.2116 32.0846 37.0081 32.0004 36.796 32.0004C36.5839 32.0004 36.3804 32.0846 36.2304 32.2346L34.6352 33.8338ZM34.4 42.069L32.5656 40.2346C32.4156 40.0846 32.2121 40.0004 32 40.0004C31.7879 40.0004 31.5844 40.0846 31.4344 40.2346L29.6 42.069V25.9138C29.8584 25.9242 30.116 25.8858 30.3592 25.7994C30.4596 25.7621 30.5704 25.764 30.6695 25.8048C30.7685 25.8456 30.8486 25.9222 30.8936 26.0194C31.0254 26.3115 31.2254 26.5677 31.4768 26.7664C31.7282 26.965 32.0237 27.1004 32.3384 27.161C32.4904 27.1914 32.6448 27.2042 32.8 27.2002V36.0002C32.8 36.1584 32.847 36.313 32.9349 36.4446C33.0228 36.5761 33.1477 36.6786 33.2939 36.7391C33.44 36.7997 33.6009 36.8155 33.756 36.7847C33.9112 36.7538 34.0537 36.6776 34.1656 36.5658L34.4 36.3314V42.069ZM46.4 36.0002C46.4 36.6367 46.1471 37.2472 45.6971 37.6973C45.247 38.1473 44.6365 38.4002 44 38.4002H36V34.7314L36.8 33.9314L39.4344 36.5658C39.5463 36.6776 39.6888 36.7538 39.844 36.7847C39.9991 36.8155 40.16 36.7997 40.3061 36.7391C40.4523 36.6786 40.5772 36.5761 40.6651 36.4446C40.753 36.313 40.8 36.1584 40.8 36.0002V25.0458C41.024 24.7322 41.1512 24.361 41.1672 23.9762C41.1719 23.8692 41.2166 23.7678 41.2924 23.6921C41.3683 23.6164 41.4697 23.5719 41.5768 23.5674C41.8965 23.5551 42.2088 23.4672 42.488 23.3109C42.7672 23.1546 43.0054 22.9345 43.1832 22.6684C43.3609 22.4023 43.473 22.0979 43.5104 21.7802C43.5479 21.4624 43.5095 21.1403 43.3984 20.8402C43.3616 20.7398 43.3638 20.6292 43.4047 20.5303C43.4456 20.4315 43.5222 20.3516 43.6192 20.3066C43.9101 20.173 44.1652 19.9723 44.3635 19.721C44.5618 19.4698 44.6978 19.1751 44.7603 18.8611C44.8227 18.5471 44.8099 18.2229 44.7228 17.9148C44.6357 17.6068 44.4768 17.3238 44.2592 17.089C44.1867 17.0101 44.1464 16.9069 44.1464 16.7998C44.1464 16.6927 44.1867 16.5894 44.2592 16.5106C44.4768 16.2759 44.6357 15.9929 44.7228 15.685C44.8099 15.377 44.8227 15.0527 44.7603 14.7388C44.6978 14.4249 44.5618 14.1303 44.3635 13.8791C44.1651 13.6279 43.9101 13.4273 43.6192 13.2938C43.5219 13.249 43.4451 13.1693 43.404 13.0704C43.3629 12.9715 43.3606 12.8607 43.3976 12.7602C43.5087 12.4601 43.5471 12.138 43.5096 11.8202C43.4722 11.5025 43.3601 11.1981 43.1824 10.932C43.0046 10.6659 42.7664 10.4458 42.4872 10.2895C42.208 10.1332 41.8957 10.0453 41.576 10.033C41.4689 10.0285 41.3675 9.984 41.2916 9.90831C41.2158 9.83262 41.1711 9.73124 41.1664 9.6242C41.1544 9.30436 41.0668 8.99192 40.9108 8.71249C40.7547 8.43306 40.5346 8.19461 40.2686 8.0167C40.0025 7.83878 39.6981 7.72647 39.3802 7.68898C39.0624 7.65148 38.7401 7.68987 38.44 7.801C38.3396 7.83889 38.2286 7.83726 38.1294 7.79642C38.0302 7.75557 37.9502 7.67857 37.9056 7.581C37.772 7.29011 37.5713 7.03504 37.32 6.8367C37.0688 6.63835 36.7741 6.50238 36.4601 6.43993C36.1462 6.37748 35.8219 6.39033 35.5138 6.47743C35.2058 6.56453 34.9228 6.72339 34.688 6.941C34.6093 7.01346 34.5062 7.05369 34.3992 7.05369C34.2922 7.05369 34.1891 7.01346 34.1104 6.941C33.8757 6.72339 33.5928 6.56452 33.2848 6.47742C32.9768 6.39031 32.6525 6.37746 32.3386 6.43992C32.0247 6.50237 31.7301 6.63835 31.4789 6.8367C31.2277 7.03505 31.0271 7.29012 30.8936 7.581C30.8488 7.67865 30.7687 7.75572 30.6694 7.79669C30.5701 7.83766 30.459 7.83948 30.3584 7.8018C30.0583 7.69067 29.736 7.65228 29.4182 7.68978C29.1003 7.72727 28.7959 7.83958 28.5298 8.0175C28.2638 8.19541 28.0437 8.43386 27.8876 8.71329C27.7316 8.99272 27.644 9.30516 27.632 9.625C27.6273 9.73204 27.5826 9.83342 27.5068 9.90911C27.4309 9.9848 27.3295 10.0293 27.2224 10.0338C26.9027 10.0461 26.5904 10.134 26.3112 10.2903C26.032 10.4466 25.7938 10.6667 25.616 10.9328C25.4383 11.1989 25.3262 11.5033 25.2888 11.821C25.2513 12.1388 25.2897 12.4609 25.4008 12.761C25.4376 12.8614 25.4354 12.972 25.3945 13.0709C25.3536 13.1697 25.277 13.2496 25.18 13.2946C24.8891 13.4282 24.634 13.6289 24.4357 13.8802C24.2374 14.1314 24.1014 14.4261 24.0389 14.7401C23.9765 15.054 23.9893 15.3783 24.0764 15.6864C24.1635 15.9944 24.3224 16.2774 24.54 16.5122C24.6125 16.591 24.6528 16.6943 24.6528 16.8014C24.6528 16.9085 24.6125 17.0117 24.54 17.0906C24.3224 17.3253 24.1635 17.6082 24.0764 17.9162C23.9893 18.2242 23.9765 18.5484 24.0389 18.8624C24.1014 19.1763 24.2374 19.4709 24.4357 19.7221C24.6341 19.9733 24.8891 20.1739 25.18 20.3074C25.2773 20.3521 25.3541 20.4319 25.3952 20.5308C25.4363 20.6297 25.4386 20.7405 25.4016 20.841C25.2905 21.1411 25.2521 21.4632 25.2896 21.781C25.327 22.0987 25.4391 22.4031 25.6168 22.6692C25.7946 22.9353 26.0328 23.1554 26.312 23.3117C26.5912 23.468 26.9035 23.5559 27.2232 23.5682C27.4448 23.5778 27.6232 23.7554 27.6328 23.977C27.6488 24.361 27.7768 24.7322 28 25.0458V38.4002H4C3.36348 38.4002 2.75303 38.1473 2.30294 37.6973C1.85286 37.2472 1.6 36.6367 1.6 36.0002V7.2002C1.6 6.56368 1.85286 5.95323 2.30294 5.50314C2.75303 5.05305 3.36348 4.8002 4 4.8002H44C44.6365 4.8002 45.247 5.05305 45.6971 5.50314C46.1471 5.95323 46.4 6.56368 46.4 7.2002V36.0002Z" fill="white"/>
<path d="M8.80005 32.0001C8.16353 32.0001 7.55308 31.7472 7.10299 31.2972C6.6529 30.8471 6.40005 30.2366 6.40005 29.6001V13.6001C6.40005 12.9636 6.6529 12.3531 7.10299 11.903C7.55308 11.453 8.16353 11.2001 8.80005 11.2001H23.2C23.4122 11.2001 23.6157 11.1158 23.7657 10.9658C23.9158 10.8158 24 10.6123 24 10.4001C24 10.1879 23.9158 9.98444 23.7657 9.83441C23.6157 9.68438 23.4122 9.6001 23.2 9.6001H8.80005C7.73957 9.60137 6.7229 10.0232 5.97302 10.7731C5.22315 11.5229 4.80132 12.5396 4.80005 13.6001V29.6001C4.80132 30.6606 5.22315 31.6773 5.97302 32.4271C6.7229 33.177 7.73957 33.5988 8.80005 33.6001H24C24.2122 33.6001 24.4157 33.5158 24.5657 33.3658C24.7158 33.2158 24.8 33.0123 24.8 32.8001C24.8 32.5879 24.7158 32.3844 24.5657 32.2344C24.4157 32.0844 24.2122 32.0001 24 32.0001H8.80005Z" fill="white"/>
<path d="M9.60003 22.4004H20.8C21.0122 22.4004 21.2157 22.3161 21.3657 22.1661C21.5157 22.0161 21.6 21.8126 21.6 21.6004C21.6 21.3882 21.5157 21.1847 21.3657 21.0347C21.2157 20.8847 21.0122 20.8004 20.8 20.8004H9.60003C9.38786 20.8004 9.18437 20.8847 9.03434 21.0347C8.88431 21.1847 8.80003 21.3882 8.80003 21.6004C8.80003 21.8126 8.88431 22.0161 9.03434 22.1661C9.18437 22.3161 9.38786 22.4004 9.60003 22.4004ZM9.60003 19.2004H20.8C21.0122 19.2004 21.2157 19.1161 21.3657 18.9661C21.5157 18.8161 21.6 18.6126 21.6 18.4004C21.6 18.1882 21.5157 17.9847 21.3657 17.8347C21.2157 17.6847 21.0122 17.6004 20.8 17.6004H9.60003C9.38786 17.6004 9.18437 17.6847 9.03434 17.8347C8.88431 17.9847 8.80003 18.1882 8.80003 18.4004C8.80003 18.6126 8.88431 18.8161 9.03434 18.9661C9.18437 19.1161 9.38786 19.2004 9.60003 19.2004ZM9.60003 16.0004H20.8C21.0122 16.0004 21.2157 15.9161 21.3657 15.7661C21.5157 15.616 21.6 15.4126 21.6 15.2004C21.6 14.9882 21.5157 14.7847 21.3657 14.6347C21.2157 14.4847 21.0122 14.4004 20.8 14.4004H9.60003C9.38786 14.4004 9.18437 14.4847 9.03434 14.6347C8.88431 14.7847 8.80003 14.9882 8.80003 15.2004C8.80003 15.4126 8.88431 15.616 9.03434 15.7661C9.18437 15.9161 9.38786 16.0004 9.60003 16.0004ZM8.86643 29.9204C8.90841 30.0168 8.96898 30.1039 9.04466 30.1769C9.12035 30.2498 9.20967 30.3071 9.30752 30.3455C9.40536 30.384 9.50982 30.4027 9.61492 30.4007C9.72002 30.3987 9.8237 30.3761 9.92003 30.334C10.6607 30.0588 11.3413 29.6435 11.9248 29.1108C12.1414 28.8946 12.3308 28.6529 12.4888 28.3908C12.7944 28.7348 13.1528 29.026 13.552 29.2548C14.108 29.618 14.8 29.7068 15.4296 29.4948C15.6712 29.4012 15.8896 29.2564 16.0696 29.0708C16.432 29.2972 16.8304 29.458 17.248 29.5468L17.8528 29.69C19.0872 30.0516 20.3696 30.2212 21.656 30.194C21.7608 30.1864 21.8631 30.1583 21.957 30.1112C22.0509 30.0641 22.1347 29.999 22.2034 29.9195C22.2722 29.8401 22.3246 29.7479 22.3577 29.6482C22.3908 29.5484 22.404 29.4432 22.3964 29.3384C22.3889 29.2336 22.3607 29.1313 22.3136 29.0374C22.2666 28.9435 22.2014 28.8597 22.122 28.791C22.0425 28.7222 21.9503 28.6698 21.8506 28.6367C21.7509 28.6036 21.6456 28.5904 21.5408 28.598C20.4184 28.6124 19.3008 28.4564 18.2256 28.134L17.6072 27.9876C16.8608 27.8156 16.6688 27.5148 16.5896 27.3028C16.5222 27.1227 16.3921 26.973 16.2233 26.881C16.0545 26.7889 15.8582 26.7608 15.6703 26.8017C15.4824 26.8426 15.3155 26.9498 15.2002 27.1037C15.0849 27.2575 15.0289 27.4478 15.0424 27.6396C15.0468 27.7101 15.0327 27.7805 15.0014 27.8438C14.9701 27.9071 14.9227 27.9611 14.864 28.0004C14.6771 28.0242 14.4882 27.9755 14.336 27.8644C13.6891 27.4616 13.2025 26.8461 12.96 26.1236C12.8934 25.9436 12.7644 25.7936 12.5963 25.7008C12.4283 25.6081 12.2326 25.5788 12.0448 25.6184C11.857 25.658 11.6897 25.7637 11.5734 25.9164C11.4571 26.0691 11.3995 26.2584 11.4112 26.45C11.4179 26.7331 11.3664 27.0146 11.2599 27.277C11.1534 27.5394 10.9941 27.7772 10.792 27.9756C10.3478 28.3641 9.83505 28.6663 9.28003 28.8668C9.18366 28.9088 9.09651 28.9693 9.02356 29.045C8.95061 29.1207 8.89329 29.21 8.85488 29.3079C8.81647 29.4057 8.79772 29.5102 8.7997 29.6153C8.80168 29.7204 8.82436 29.8241 8.86643 29.9204ZM34.4 23.2004C35.6658 23.2004 36.9032 22.825 37.9557 22.1218C39.0082 21.4186 39.8285 20.419 40.3129 19.2496C40.7973 18.0801 40.924 16.7933 40.6771 15.5518C40.4301 14.3103 39.8206 13.17 38.9255 12.2749C38.0305 11.3799 36.8901 10.7703 35.6486 10.5234C34.4071 10.2764 33.1203 10.4032 31.9509 10.8876C30.7814 11.372 29.7819 12.1923 29.0786 13.2447C28.3754 14.2972 28 15.5346 28 16.8004C28.0019 18.4972 28.6768 20.124 29.8767 21.3238C31.0765 22.5236 32.7032 23.1985 34.4 23.2004ZM34.4 12.0004C35.0304 12.0004 35.6545 12.1245 36.2369 12.3658C36.8193 12.607 37.3484 12.9606 37.7941 13.4063C38.2399 13.852 38.5934 14.3812 38.8347 14.9635C39.0759 15.5459 39.2 16.17 39.2 16.8004C39.2 17.4307 39.0759 18.0549 38.8347 18.6373C38.5934 19.2196 38.2399 19.7488 37.7941 20.1945C37.3484 20.6402 36.8193 20.9938 36.2369 21.235C35.6545 21.4762 35.0304 21.6004 34.4 21.6004C33.127 21.6004 31.9061 21.0947 31.0059 20.1945C30.1057 19.2943 29.6 18.0734 29.6 16.8004C29.6 15.5274 30.1057 14.3065 31.0059 13.4063C31.9061 12.5061 33.127 12.0004 34.4 12.0004Z" fill="white"/>
</g>
<defs>
<clipPath id="clip0_22_1375">
<rect width="48" height="48" fill="white"/>
</clipPath>
</defs>
</svg>
