<svg width="25" height="24" fill="none" xmlns="http://www.w3.org/2000/svg"><g opacity=".6" clip-path="url(#a)"><path d="M12.497 7.998A4.01 4.01 0 0 0 8.495 12a4.01 4.01 0 0 0 4.002 4.002A4.01 4.01 0 0 0 16.498 12a4.01 4.01 0 0 0-4.001-4.002ZM24.499 12c0-1.657.015-3.3-.078-4.953-.093-1.922-.532-3.627-1.937-5.032C21.076.607 19.374.172 17.453.08 15.796-.014 14.153 0 12.5 0c-1.657 0-3.3-.015-4.953.078C5.625.172 3.92.61 2.515 2.015 1.107 3.423.672 5.125.58 7.047.486 8.704.5 10.346.5 12c0 1.654-.015 3.3.078 4.953.093 1.922.531 3.627 1.936 5.032 1.408 1.408 3.11 1.843 5.032 1.936 1.657.093 3.299.078 4.953.078 1.657 0 3.299.015 4.953-.078 1.921-.093 3.626-.531 5.031-1.936 1.408-1.408 1.843-3.11 1.937-5.032.096-1.654.078-3.296.078-4.953Zm-12.002 6.157A6.148 6.148 0 0 1 6.34 12a6.148 6.148 0 0 1 6.157-6.157A6.148 6.148 0 0 1 18.654 12a6.148 6.148 0 0 1-6.157 6.157ZM18.906 7.03a1.436 1.436 0 0 1-1.438-1.438c0-.796.642-1.438 1.438-1.438a1.436 1.436 0 0 1 1.329 1.988 1.436 1.436 0 0 1-1.329.888Z" fill="#fff"/></g><defs><clipPath id="a"><path fill="#fff" transform="translate(.5)" d="M0 0h24v24H0z"/></clipPath></defs></svg>