<svg width="48" height="48" fill="none" xmlns="http://www.w3.org/2000/svg"><g clip-path="url(#a)"><path d="M41.25 23.25h-3a.747.747 0 0 1-.75-.75v-.42a7.9 7.9 0 0 0 3.534-4.878 3 3 0 0 0 .216-5.857V8.25a5.256 5.256 0 0 0-4.81-5.23 3.44 3.44 0 0 0-2.867-1.52H30.75A6.758 6.758 0 0 0 24 8.25v2.25a.75.75 0 0 0 .75.75h.75v.095a3 3 0 0 0 .213 5.856c.02.082.04.164.063.246l1.447-.394A6.392 6.392 0 0 1 27 15.375v-4.148a18.533 18.533 0 0 0 8.411-2.479 4.904 4.904 0 0 0 3.198 3.412l1.141.38v2.835a6.375 6.375 0 0 1-10.065 5.199l-.87 1.222c.374.266.77.498 1.185.695v.009a.75.75 0 0 1-.75.75h-.75V21a3.003 3.003 0 0 0-3-3h-21a3.003 3.003 0 0 0-3 3v2.25H3V21a1.502 1.502 0 0 1 1.5-1.5h21A1.502 1.502 0 0 1 27 21v13.5a1.502 1.502 0 0 1-1.5 1.5h-8.287l.77-3.593a.751.751 0 0 0-.733-.907H12a.75.75 0 0 0-.69.455L9.578 36H4.5A1.502 1.502 0 0 1 3 34.5v-9.75H1.5v9.75a3.004 3.004 0 0 0 3 3h4.434L7.005 42H2.25a.75.75 0 0 0-.75.75v3a.75.75 0 0 0 .75.75h43.5a.75.75 0 0 0 .75-.75v-3a.75.75 0 0 0-.75-.75h-1.288a5.984 5.984 0 0 0 2.038-4.5v-.75H45v.75a4.505 4.505 0 0 1-4.5 4.5h-12v-1.5a2.253 2.253 0 0 1 2.25-2.25h9.75a.75.75 0 0 0 .75-.75v-5.25H45v3h1.5V28.5a5.256 5.256 0 0 0-5.25-5.25Zm0-7.875v-2.422a1.498 1.498 0 0 1-.004 2.597c0-.058.004-.116.004-.175Zm-16.5-1.125a1.492 1.492 0 0 1 .75-1.297v2.422l.003.174a1.5 1.5 0 0 1-.753-1.299Zm10.5-7.157a17.056 17.056 0 0 1-9.158 2.657H25.5v-.835c6.42-.841 8.684-3.038 8.78-3.135l-1.056-1.065c-.005.005-.55.524-1.867 1.124-1.108.504-2.979 1.16-5.786 1.552.08-.484.228-.955.44-1.398 2.806-.08 4.26-.79 4.324-.822l-.666-1.344c-.011.005-.85.403-2.495.584A5.23 5.23 0 0 1 30.75 3h2.823a1.951 1.951 0 0 1 1.677.942v3.151Zm3.833 3.644A3.407 3.407 0 0 1 36.75 7.5V4.575a3.757 3.757 0 0 1 3 3.675v2.71l-.667-.223ZM31.441 23.01a7.881 7.881 0 0 0 4.578-.218 2.24 2.24 0 0 0 1.004 1.595l-.214.285a3.941 3.941 0 0 1-6.458-.21 2.26 2.26 0 0 0 1.09-1.452ZM27 40.5V42h-3.75v-1.5H27Zm-1.592-3h.092c.253 0 .505-.032.75-.095V39h-1.442l.6-1.5Zm-6 0h4.384l-.6 1.5H22.5a.75.75 0 0 0-.75.75V42h-1.5v-2.25a.75.75 0 0 0-.75-.75h-.692l.6-1.5Zm-2.516 0h.9l-.6 1.5h-.622l.322-1.5Zm1.858 3V42h-2.822l.322-1.5h2.5ZM12.495 33h3.827l-1.929 9H8.637l3.857-9ZM45 43.5V45H3v-1.5h42Zm0-12.75h-3.75V28.5h-1.5v8.25h-9a3.748 3.748 0 0 0-3 1.503V36.48c.484-.547.75-1.251.75-1.981v-9.75h.287a5.445 5.445 0 0 0 9.222.821l.616-.821h2.625A3.754 3.754 0 0 1 45 28.5v2.25Zm-8.308-2.175.654 1.35a8.25 8.25 0 0 1-7.721-.28l.75-1.3a6.75 6.75 0 0 0 6.317.23ZM31.5 13.5a1.5 1.5 0 1 1-3 0 1.5 1.5 0 0 1 3 0Zm3 0a1.5 1.5 0 1 1 3 0 1.5 1.5 0 0 1-3 0Zm.341 2.456.818 1.258a4.88 4.88 0 0 1-5.318 0l.818-1.258a3.378 3.378 0 0 0 3.682 0ZM12 23.25H9v-1.5h3v1.5Zm4.5-1.5v1.5h-3v-1.5h3Zm4.5 0v1.5h-3v-1.5h3Zm4.5 1.5h-3v-1.5h3v1.5Zm-18-1.5v1.5h-3v-1.5h3Z" fill="#fff"/></g><defs><clipPath id="a"><path fill="#fff" d="M0 0h48v48H0z"/></clipPath></defs></svg>