<svg width="37" height="36" fill="none" xmlns="http://www.w3.org/2000/svg"><path d="M5.6 31.242C7.355 33 10.184 33 15.84 33h6c5.657 0 8.486 0 10.242-1.758 1.758-1.756 1.758-4.585 1.758-10.242 0-1.755 0-3.237-.052-4.5m-1.706-5.742C30.327 9 27.498 9 21.841 9h-6C10.185 9 7.356 9 5.6 10.758 3.841 12.515 3.841 15.344 3.841 21c0 1.755 0 3.237.053 4.5M18.84 3c2.83 0 4.242 0 5.121.88.88.878.88 2.291.88 5.12M13.72 3.88c-.879.878-.879 2.291-.879 5.12" stroke="#000" stroke-width=".894" stroke-linecap="round"/><path d="M18.841 26c1.658 0 3-1.12 3-2.5s-1.342-2.5-3-2.5c-1.657 0-3-1.119-3-2.5 0-1.38 1.343-2.5 3-2.5m0 10c-1.657 0-3-1.12-3-2.5m3 2.5v1m0-11v-1m0 1c1.658 0 3 1.12 3 2.5" stroke="#000" stroke-width=".894" stroke-linecap="round"/></svg>