<svg width="20" height="22" fill="none" xmlns="http://www.w3.org/2000/svg"><path d="M5.615 3.473 6.89 5.435c.253.39.17.916-.19 1.204L5.13 7.892A.908.908 0 0 0 4.9 9.03c.46.85.896 1.852 3.055 4.072 2.16 2.22 3.138 2.666 3.966 3.139a.854.854 0 0 0 1.109-.236l1.22-1.61a.858.858 0 0 1 1.172-.196l1.97 1.349 2.218 1.518a.911.911 0 0 1 .264 1.208l-1.05 1.798c-.28.486-.73.844-1.258.998-1.746.492-5.598.592-11.771-5.749C-.377 8.982-.281 5.026.198 3.232a2.19 2.19 0 0 1 .972-1.291L2.92.86a.86.86 0 0 1 1.176.272l1.518 2.34Z" fill="#F6A21E"/><path d="M11.379 3.212a.35.35 0 0 0-.345.354.35.35 0 0 0 .345.354c3.236.004 5.858 2.697 5.862 6.021a.35.35 0 0 0 .345.354.35.35 0 0 0 .344-.354c-.004-3.715-2.934-6.725-6.551-6.729ZM11.379 5.338a.35.35 0 0 0-.345.354.35.35 0 0 0 .345.354c2.094.003 3.79 1.745 3.793 3.896a.35.35 0 0 0 .345.354.35.35 0 0 0 .345-.354c-.003-2.542-2.009-4.601-4.483-4.604Z" fill="#F1CA2D"/><path d="M11.379 7.462a.35.35 0 0 0-.345.355.35.35 0 0 0 .345.354c.952 0 1.723.793 1.724 1.77a.35.35 0 0 0 .345.354.35.35 0 0 0 .345-.354c-.002-1.368-1.082-2.477-2.414-2.479ZM9.655 17.733a.337.337 0 0 1-.207-.07c-2.767-2.131-5.803-6.27-5.931-6.446a.362.362 0 0 1-.042-.352.341.341 0 0 1 .593-.073c.031.042 3.107 4.234 5.793 6.304a.36.36 0 0 1 .12.395.346.346 0 0 1-.326.242ZM10.69 18.44a.35.35 0 0 0 .344-.353.35.35 0 0 0-.345-.354.35.35 0 0 0-.345.354.35.35 0 0 0 .345.353Z" fill="#F1CA2D"/></svg>