<svg width="25" height="24" viewBox="0 0 25 24" fill="none" xmlns="http://www.w3.org/2000/svg">
<path d="M24.9202 23.25C22.8553 19.6803 19.5456 17.243 15.7108 16.3643C17.533 15.6177 19.0395 14.2616 19.9727 12.5276C20.906 10.7937 21.2083 8.78941 20.8278 6.85732C20.4474 4.92523 19.4079 3.18518 17.8869 1.93447C16.3659 0.683765 14.4578 0 12.4886 0C10.5194 0 8.61128 0.683765 7.09028 1.93447C5.56927 3.18518 4.52975 4.92523 4.1493 6.85732C3.76886 8.78941 4.0711 10.7937 5.00439 12.5276C5.93768 14.2616 7.44411 15.6177 9.2663 16.3643C5.43657 17.2392 2.12181 19.6803 0.0569547 23.25C-0.00281764 23.3643 -0.01613 23.4972 0.0197987 23.6211C0.0557274 23.7449 0.138118 23.8501 0.249761 23.9146C0.361403 23.9792 0.493663 23.9981 0.618912 23.9674C0.744161 23.9367 0.852713 23.8588 0.921893 23.75C3.36422 19.5241 7.69141 17.0005 12.4886 17.0005C17.2857 17.0005 21.6129 19.5241 24.0552 23.75C24.0991 23.8259 24.1621 23.889 24.238 23.9329C24.3139 23.9768 24.4 23.9999 24.4877 24C24.5756 24.0003 24.6619 23.977 24.7377 23.9325C24.8523 23.8661 24.9359 23.757 24.9701 23.629C25.0043 23.5011 24.9864 23.3648 24.9202 23.25ZM4.9891 8.5011C4.9891 7.01785 5.42894 5.56791 6.25299 4.33463C7.07704 3.10134 8.2483 2.14012 9.61865 1.5725C10.989 1.00489 12.4969 0.856372 13.9516 1.14574C15.4064 1.43511 16.7427 2.14936 17.7915 3.19818C18.8403 4.247 19.5546 5.58328 19.8439 7.03803C20.1333 8.49278 19.9848 10.0007 19.4172 11.371C18.8495 12.7414 17.8883 13.9126 16.655 14.7367C15.4218 15.5607 13.9718 16.0006 12.4886 16.0006C10.5003 15.9983 8.59412 15.2074 7.1882 13.8015C5.78228 12.3955 4.99142 10.4894 4.9891 8.5011Z" fill="white"/>
</svg>
