<svg width="37" height="36" viewBox="0 0 37 36" fill="none" xmlns="http://www.w3.org/2000/svg">
<path d="M32.6654 30.0942C30.3423 26.078 26.6185 23.3358 22.3041 22.3472C24.3542 21.5072 26.0491 19.9815 27.0991 18.0306C28.1491 16.0798 28.4892 13.8248 28.0612 11.6511C27.6331 9.47731 26.4636 7.51962 24.7523 6.11247C23.0411 4.70533 20.8943 3.93604 18.6788 3.93604C16.4633 3.93604 14.3166 4.70533 12.6053 6.11247C10.8941 7.51962 9.72451 9.47731 9.29648 11.6511C8.86844 13.8248 9.20849 16.0798 10.2585 18.0306C11.3085 19.9815 13.0034 21.5072 15.0535 22.3472C10.7448 23.3316 7.01538 26.078 4.69225 30.0942C4.625 30.2228 4.61003 30.3723 4.65045 30.5117C4.69087 30.651 4.78357 30.7693 4.90917 30.8419C5.03478 30.9145 5.18358 30.9358 5.3245 30.9013C5.46542 30.8668 5.58754 30.7791 5.66538 30.6567C8.41319 25.9022 13.2816 23.063 18.6788 23.063C24.076 23.063 28.9444 25.9022 31.6923 30.6567C31.7416 30.7421 31.8125 30.8131 31.8979 30.8625C31.9833 30.9118 32.0802 30.9379 32.1788 30.938C32.2777 30.9383 32.3748 30.912 32.4601 30.862C32.589 30.7873 32.683 30.6645 32.7215 30.5206C32.76 30.3766 32.7398 30.2233 32.6654 30.0942ZM10.2413 13.5005C10.2413 11.8317 10.7362 10.2004 11.6633 8.81284C12.5904 7.4253 13.9082 6.34384 15.4499 5.70523C16.9917 5.06661 18.6882 4.89952 20.3249 5.22509C21.9616 5.55065 23.465 6.35424 24.645 7.53425C25.825 8.71425 26.6286 10.2177 26.9542 11.8544C27.2798 13.4911 27.1127 15.1876 26.474 16.7294C25.8354 18.2711 24.754 19.5889 23.3664 20.516C21.9789 21.4431 20.3476 21.938 18.6788 21.938C16.4419 21.9354 14.2973 21.0456 12.7155 19.4638C11.1337 17.882 10.2439 15.7374 10.2413 13.5005Z" fill="black"/>
</svg>
