<svg width="37" height="36" viewBox="0 0 37 36" fill="none" xmlns="http://www.w3.org/2000/svg">
<path d="M30.5174 10.8975L18.7574 19.5525L6.99736 10.8975M5.60986 8.03251C5.21204 8.03251 4.83051 8.19055 4.5492 8.47185C4.2679 8.75315 4.10986 9.13468 4.10986 9.53251V26.49C4.10986 26.8878 4.2679 27.2694 4.5492 27.5507C4.83051 27.832 5.21204 27.99 5.60986 27.99H31.9049C32.3027 27.99 32.6842 27.832 32.9655 27.5507C33.2468 27.2694 33.4049 26.8878 33.4049 26.49V9.51001C33.4049 9.11219 33.2468 8.73065 32.9655 8.44935C32.6842 8.16804 32.3027 8.01001 31.9049 8.01001H5.60986V8.03251Z" stroke="black" stroke-width="0.636595" stroke-linecap="round" stroke-linejoin="round"/>
</svg>
