<svg width="30" height="30" viewBox="0 0 30 30" fill="none" xmlns="http://www.w3.org/2000/svg">
<path d="M2.8125 8.50391C2.8125 7.39934 3.70793 6.50391 4.8125 6.50391H25.1875C26.2921 6.50391 27.1875 7.39934 27.1875 8.50391V20.0391H2.8125V8.50391Z" fill="#FF4B55"/>
<path d="M2.8125 18.9844H27.1875V21.9727C27.1875 22.814 26.5054 23.4961 25.6641 23.4961H7.32422C4.83247 23.4961 2.8125 21.4761 2.8125 18.9844Z" fill="#73AF00"/>
<path d="M4.8125 23.4961C3.70793 23.4961 2.8125 22.6007 2.8125 21.4961L2.8125 8.50391C2.8125 7.39934 3.70793 6.50391 4.8125 6.50391L8.4375 6.50391L8.4375 23.4961L4.8125 23.4961Z" fill="#F0F0F0"/>
<path d="M7.73383 18.2877H7.5V18.7209H7.73383V18.2877Z" fill="#FF4B55"/>
<path d="M3.98512 9.66092H3.75024V10.0941H3.98512V9.66092Z" fill="#FF4B55"/>
<path d="M3.75 10.9638H3.86796V11.1835H3.98487V11.4002H4.33546V11.1835H4.4535V10.9638H4.56808V10.6749H4.4535V10.4552H4.33546V10.2418H3.98487V10.4552H3.86796V10.6749H3.75V10.9638ZM3.98487 10.7472H4.10066V10.6028H4.22103V10.7472H4.33546V10.8915H4.22103V11.0391H4.10066V10.8915H3.98487V10.7472Z" fill="#FF4B55"/>
<path d="M3.98512 11.5448H3.75024V11.9811H3.98512V11.5448Z" fill="#FF4B55"/>
<path d="M5.85971 9.66092H5.62476V10.0941H5.85971V9.66092Z" fill="#FF4B55"/>
<path d="M5.27377 10.2419V10.4554H5.15686V10.6751H5.03882V10.9639H5.15686V11.1837H5.27377V11.4003H5.62435V11.1837H5.8593V11.4003H6.21109V11.1837H6.33033V10.9639H6.44491V10.6751H6.33033V10.4554H6.21109V10.2419H5.8593V10.4554H5.62435V10.2419H5.27377ZM5.85938 10.7473H5.97742V10.6029H6.09546V10.7473H6.21109V10.8917H6.09546V11.0392H5.97742V10.8917H5.85938V10.7473ZM5.62443 10.8917H5.50879V11.0393H5.38948V10.8917H5.27384V10.7474H5.38948V10.603H5.50879V10.7474H5.62443V10.8917Z" fill="#FF4B55"/>
<path d="M3.98512 16.621H3.75024V16.9097H3.98512V16.621Z" fill="#FF4B55"/>
<path d="M3.98512 13.3588H3.75024V13.6476H3.98512V13.3588Z" fill="#FF4B55"/>
<path d="M5.85971 11.5448H5.62476V11.9811H5.85971V11.5448Z" fill="#FF4B55"/>
<path d="M3.98512 18.2877H3.75024V18.7209H3.98512V18.2877Z" fill="#FF4B55"/>
<path d="M3.98487 15.136V15.1329V14.9163H3.75V15.1329V15.136V15.3526H3.98487V15.136Z" fill="#FF4B55"/>
<path d="M3.98512 22.2779H3.75024V22.7111H3.98512V22.2779Z" fill="#FF4B55"/>
<path d="M7.73383 22.2779H7.5V22.7111H7.73383V22.2779Z" fill="#FF4B55"/>
<path d="M3.98512 20.1746H3.75024V20.6078H3.98512V20.1746Z" fill="#FF4B55"/>
<path d="M5.85971 22.2779H5.62476V22.7111H5.85971V22.2779Z" fill="#FF4B55"/>
<path d="M7.14505 10.2385V10.4551H7.02942V10.6748H6.91138V10.9637H7.02942V11.1802H7.14505V11.3969H7.49811V11.1802H7.61503V10.9637H7.73066V10.6748H7.61503V10.4551H7.49811V10.2385H7.14505ZM7.49811 10.8915H7.38007V11.0358H7.26196V10.8915H7.14505V10.7439H7.26196V10.6026H7.38V10.7439H7.49804L7.49811 10.8915Z" fill="#FF4B55"/>
<path d="M7.73383 7.5575H7.5V7.99072H7.73383V7.5575Z" fill="#FF4B55"/>
<path d="M3.98512 7.5575H3.75024V7.99072H3.98512V7.5575Z" fill="#FF4B55"/>
<path d="M7.73383 11.5448H7.5V11.9811H7.73383V11.5448Z" fill="#FF4B55"/>
<path d="M7.73383 9.66092H7.5V10.0941H7.73383V9.66092Z" fill="#FF4B55"/>
<path d="M5.85971 7.5575H5.62476V7.99072H5.85971V7.5575Z" fill="#FF4B55"/>
<path d="M4.92126 21.1891H4.68872V21.5502H4.92126V21.1891Z" fill="#FF4B55"/>
<path d="M5.27377 15.136V15.1329V14.9163H5.03882V15.1329V15.136V15.3526H5.27377V15.136Z" fill="#FF4B55"/>
<path d="M6.56429 7.26562V7.62988H6.33054V7.99092H6.09567V8.35503H5.85951V8.71606H5.62456V8.35503H5.38961V7.99092H5.15707V7.62988H4.9234V7.26562H4.68845V7.62988H4.4535V7.99092H4.22095V8.35503H3.9848V8.71606H3.75V9.08032H3.98488V9.44135H4.22103V9.80546H4.45357V10.1696H4.68852V10.5306H4.92107V10.1696H5.15722V9.80546H5.38976V9.44135H5.62471V9.08032H5.85966V9.44135H6.09582V9.80546H6.32836V10.1696H6.56444V10.5306H6.79826V10.1696H7.03193V9.80546H7.26681V9.44135H7.50048V9.08032H7.7343V8.71606H7.50168V8.35503H7.26673V7.99092H7.03186V7.62988H6.79818V7.26562H6.56429ZM5.38961 9.08022H5.15707V9.44126H4.92091V9.80536H4.68845V9.44126H4.4535V9.08022H4.22095V8.71596H4.4535V8.35493H4.68845V7.99082H4.92099V8.35493H5.15714V8.71596H5.38969L5.38961 9.08022ZM7.03193 8.35503V8.71606H7.26681V9.08032H7.03193V9.44135H6.79826V9.80546H6.56444V9.44135H6.33069V9.08032H6.09582V8.71606H6.33069V8.35503H6.56444V7.99092H6.79826V8.35503H7.03193Z" fill="#FF4B55"/>
<path d="M5.85971 14.3729H5.62476V14.7339H5.85971V14.3729Z" fill="#FF4B55"/>
<path d="M5.85971 15.5345H5.62476V15.8955H5.85971V15.5345Z" fill="#FF4B55"/>
<path d="M6.21118 15.1329V15.136V15.3526H6.44493V15.136V15.1329V14.9163H6.21118V15.1329Z" fill="#FF4B55"/>
<path d="M6.33062 22.2778V22.6389H6.56436V23H6.79818V22.6389H7.03186V22.2778H7.26673V21.9137H7.50168V21.5496H7.7343V21.1886H7.50048V20.8243H7.26681V20.4633H7.03193V20.0992H6.79826V19.7382H6.56444V20.0992H6.32836V20.4633H6.09582V20.8243H5.85966V21.1886H5.62471V20.8243H5.38976V20.4633H5.15722V20.0992H4.92107V19.7382H4.68852V20.0992H4.45357V20.4633H4.22103V20.8243H3.98488V21.1886H3.75V21.5496H3.98488V21.9137H4.22103V22.2778H4.45357V22.6389H4.68852V23H4.92347V22.6389H5.15722V22.2778H5.38976V21.9137H5.62471V21.5496H5.85966V21.9137H6.09582V22.2778H6.33062ZM5.38961 21.5496H5.15707V21.9137H4.92091V22.2778H4.68845V21.9137H4.4535V21.5496H4.22095V21.1885H4.4535V20.8243H4.68845V20.4633H4.92099V20.8243H5.15714V21.1885H5.38969L5.38961 21.5496ZM6.09574 21.1886H6.33062V20.8243H6.56436V20.4633H6.79818V20.8243H7.03186V21.1886H7.26673V21.5496H7.03186V21.9137H6.79818V22.2778H6.56436V21.9137H6.33062V21.5496H6.09574C6.09574 21.5496 6.09574 21.1886 6.09574 21.1886Z" fill="#FF4B55"/>
<path d="M5.97757 14.8065H5.85953V14.9163H5.62458V14.8065H5.50895V14.662H5.27393V14.8786H5.38956V14.9885H5.50895V15.1329V15.136V15.2773H5.38956V15.3871H5.27393V15.6038H5.50895V15.4594H5.62458V15.3526H5.85953V15.4594H5.97757V15.6038H6.21132V15.3871H6.09569V15.2773H5.97757V15.136V15.1329V14.9885H6.09569V14.8786H6.21132V14.662H5.97757V14.8065Z" fill="#FF4B55"/>
<path d="M6.79803 8.71622H6.56421V9.08047H6.79803V8.71622Z" fill="#FF4B55"/>
<path d="M6.79803 21.1891H6.56421V21.5502H6.79803V21.1891Z" fill="#FF4B55"/>
<path d="M4.33546 20.027V19.8105H4.4535V19.5939H4.56808V19.3019H4.4535V19.0854H4.33546V18.8687H3.98487V19.0854H3.86796V19.3019H3.75V19.5939H3.86796V19.8105H3.98487V20.027H4.33546ZM3.98487 19.374H4.10291V19.2297H4.22095V19.374H4.33538V19.5216H4.22095V19.666H4.10291V19.5216H3.98487V19.374Z" fill="#FF4B55"/>
<path d="M4.92126 8.71622H4.68872V9.08047H4.92126V8.71622Z" fill="#FF4B55"/>
<path d="M7.73383 20.1746H7.5V20.6078H7.73383V20.1746Z" fill="#FF4B55"/>
<path d="M6.21133 20.027V19.8105H6.33057V19.5939H6.44515V19.3019H6.33057V19.0854H6.21133V18.8687H5.85955V19.0854H5.62459V18.8687H5.27401V19.0854H5.1571V19.3019H5.03906V19.5939H5.1571V19.8105H5.27401V20.027H5.62459V19.8105H5.85955V20.027H6.21133ZM5.62459 19.5216H5.50896V19.6659H5.38964V19.5216H5.27401V19.374H5.38964V19.2297H5.50896V19.374H5.62459V19.5216ZM5.85955 19.374H5.97758V19.2297H6.09562V19.374H6.21126V19.5216H6.09562V19.6659H5.97758V19.5216H5.85955V19.374Z" fill="#FF4B55"/>
<path d="M5.85971 20.1746H5.62476V20.6078H5.85971V20.1746Z" fill="#FF4B55"/>
<path d="M5.85971 18.2877H5.62476V18.7209H5.85971V18.2877Z" fill="#FF4B55"/>
<path d="M7.73383 16.621H7.5V16.9097H7.73383V16.621Z" fill="#FF4B55"/>
<path d="M7.49811 20.0271V19.8105H7.61503V19.594H7.73066V19.3051H7.61503V19.0854H7.49811V18.8718H7.14505V19.0854H7.02942V19.3051H6.91138V19.594H7.02942V19.8105H7.14505V20.0271H7.49811ZM7.14505 19.3773H7.26196V19.2329H7.38V19.3773H7.49804V19.5216H7.38V19.6692H7.26196V19.5216H7.14505V19.3773Z" fill="#FF4B55"/>
<path d="M7.50049 15.1329V15.136V15.3526H7.73432V15.136V15.1329V14.9163H7.50049V15.1329Z" fill="#FF4B55"/>
<path d="M7.73383 13.3588H7.5V13.6476H7.73383V13.3588Z" fill="#FF4B55"/>
<path d="M7.7343 12.5586H7.50048V12.1976H7.26681V11.8333H7.03193V11.4723H6.79826V11.1082H6.56444V11.4723H6.32836V11.8333H6.09582V12.1976H5.85966V12.4863V12.5586H5.62471V12.1975H5.38976V11.8333H5.15722V11.4722H4.92107V11.1081H4.68852V11.4722H4.45357V11.8333H4.21862V12.1975H3.98488V12.4863V12.5585H3.75V12.9226H3.98488V13.2867H4.21862V13.6478H4.45357V14.0088H4.68852V13.6478H4.92107V13.2867H5.15722V12.9226H4.92107V12.4862H5.15722V12.5585V12.7782H5.38976V13.359H5.50908V13.7169L5.15729 13.72V14.0088H4.92114V14.2254H4.6886V14.5895H4.45365V14.2254H4.2187V14.0088H3.98495V13.7922H3.75V14.4451H3.98488V14.7371H4.21862V14.9883H4.45357V15.1328V15.1359V15.2772H4.21862V15.5346H3.98488V15.8235H3.75V16.4764H3.98488V16.2567H4.21862V16.0401H4.45357V15.6791H4.68852V16.0401H4.92107V16.2567H5.15722V16.5486L5.50901 16.5517V16.9096H5.38969V17.4904H5.15714V17.707V17.7824H4.92099V17.3429H5.15714V16.9819H4.92099V16.6208H4.68845V16.2566H4.4535V16.6208H4.21855V16.9819H3.9848V17.3429H3.75V17.707H3.98488V17.7824V18.068H4.22103V18.4323H4.45357V18.7964H4.68852V19.1574H4.92107V18.7964H5.15722V18.4323H5.38976V18.068H5.62471V17.707H5.85966V17.7824V18.068H6.09582V18.4323H6.33069V18.7964H6.56444V19.1574H6.79826V18.7964H7.03193V18.4323H7.26681V18.068H7.50048V17.707H7.7343V17.3429H7.50048V16.9819H7.26681V16.6208H7.03193V16.2566H6.79826V16.6208H6.56444V16.9819H6.32836V17.3429H6.56444V17.707V17.7824H6.32836V17.707V17.4904H6.09582V16.9096H6.06234H5.97778V16.5486H6.06234H6.12561H6.21145H6.33069V16.2566H6.56444V16.04H6.79826V15.679H7.03193V16.04H7.26681V16.2566H7.50176V16.4764H7.73437V15.8234H7.50176V15.5346H7.26681V15.2772H7.03193V15.1359V15.1328V14.9884H7.26681V14.7373H7.50176V14.4453H7.73437V13.7923H7.50176V14.009H7.26681V14.2256H7.03193V14.5897H6.79826V14.2256H6.56444V14.009H6.33069V13.7201H6.21137H6.12553H6.06226H5.9777V13.3591H6.06226H6.09574V12.7783H6.32828V12.5586V12.4863H6.56436V12.5586V12.9227H6.32828V13.2868H6.56436V13.6478H6.79818V14.0089H7.03186V13.6478H7.26673V13.2868H7.5004V12.9227H7.73422L7.7343 12.5586ZM6.33062 14.4452V14.5896V14.7372H6.56436V14.9883H6.79818V15.1328V15.2772H6.56436V15.5346H6.33062V15.679V15.8233H5.9777V16.1656H5.85966V16.3288H5.74283H5.62471V16.1656H5.50908V15.8233H5.15729V15.5345H4.92114V15.2771H4.68852V15.1389V15.1295V14.9882H4.92107V14.737H5.15722V14.445H5.50901V14.1029H5.62464V13.9365H5.74275H5.85959V14.0997H5.97763V14.445H6.33062V14.4452Z" fill="#FF4B55"/>
</svg>
