<svg width="41" height="40" viewBox="0 0 41 40" fill="none" xmlns="http://www.w3.org/2000/svg">
<ellipse cx="20.896" cy="19.5122" rx="20" ry="19.5122" transform="rotate(-180 20.896 19.5122)" fill="#665A87"/>
<path d="M32.388 21.0585L9.09303 21.0585C8.52768 21.0585 8.06934 20.6002 8.06934 20.0348C8.06934 19.4694 8.52768 19.0111 9.09303 19.0111H32.388C32.9534 19.0111 33.4117 19.4694 33.4117 20.0348C33.4117 20.6002 32.9534 21.0585 32.388 21.0585Z" fill="white"/>
<path d="M32.388 28.8235L9.09303 28.8235C8.52768 28.8235 8.06934 28.3652 8.06934 27.7998C8.06934 27.2345 8.52768 26.7761 9.09303 26.7761H32.388C32.9534 26.7761 33.4117 27.2345 33.4117 27.7998C33.4117 28.3652 32.9534 28.8235 32.388 28.8235Z" fill="white"/>
<path d="M32.388 13.2935L9.09303 13.2935C8.52768 13.2935 8.06934 12.8352 8.06934 12.2698C8.06934 11.7044 8.52768 11.2461 9.09303 11.2461L32.388 11.2461C32.9534 11.2461 33.4117 11.7044 33.4117 12.2698C33.4117 12.8352 32.9534 13.2935 32.388 13.2935Z" fill="white"/>
</svg>
