<svg width="320" height="595" viewBox="0 0 320 595" fill="none" xmlns="http://www.w3.org/2000/svg">
<path d="M-91.3368 568.091C-91.3367 607.494 -158.053 464.125 -219.666 467.588C-281.278 471.05 -293.377 536.829 -392.953 549.089C-492.528 561.348 -691.847 461.447 -691.847 461.447C-691.847 461.447 -1156.33 11.3031 -827.612 3.51695C-498.895 -4.26924 584.341 133.556 876.432 -36.8463C1168.52 -207.248 998.059 826.892 839.956 545.823C681.853 264.754 492.725 583.494 436.557 568.494C380.388 553.494 278.888 504.654 207.932 504.654C136.976 504.654 -91.3368 528.688 -91.3368 568.091Z" fill="url(#paint0_linear_50_369)"/>
<defs>
<linearGradient id="paint0_linear_50_369" x1="346.873" y1="-342.904" x2="-764.223" y2="-72.1222" gradientUnits="userSpaceOnUse">
<stop stop-color="#5C6BC0"/>
<stop offset="1" stop-color="#5A1D45"/>
</linearGradient>
</defs>
</svg>
