<svg width="302" height="199" viewBox="0 0 302 199" fill="none" xmlns="http://www.w3.org/2000/svg">
<path d="M253.956 54.4381L69.9096 110.929L38.5994 69.7415L302 0L253.956 54.4381Z" fill="url(#paint0_linear_119_549)"/>
<path d="M225.408 119.674L118.69 195.14L75.75 138.683L263.375 69.7422L225.408 119.674Z" fill="url(#paint1_linear_119_549)"/>
<path d="M150.999 21.5115C79.1701 21.5115 18.6546 12.4163 0 0L38.5984 50.7666C55.7532 59.3278 99.5876 65.4191 150.999 65.4191C202.411 65.4191 246.246 59.3278 263.401 50.7666L301.999 0C283.344 12.4163 222.829 21.5115 150.999 21.5115Z" fill="url(#paint2_linear_119_549)"/>
<path d="M151 84.3781C99.5885 84.3781 55.7542 78.2868 38.5994 69.7256L75.7506 118.59C88.9062 124.064 118.033 127.885 152.053 127.885C183.626 127.885 211.253 124.547 225.435 119.674L263.428 69.7256C246.247 78.2868 202.412 84.3781 151 84.3781Z" fill="url(#paint3_linear_119_549)"/>
<path d="M118.69 195.123C129.292 197.286 140.392 198.302 151.526 198.127C162.207 198.265 172.858 197.353 183.099 195.424L225.434 139.767C211.252 144.657 183.731 147.978 152.052 147.978C118.058 147.978 88.9056 144.157 75.75 138.666L118.69 195.123Z" fill="url(#paint4_linear_119_549)"/>
<defs>
<linearGradient id="paint0_linear_119_549" x1="54.6755" y1="90.2016" x2="198.285" y2="-17.3048" gradientUnits="userSpaceOnUse">
<stop offset="0.24" stop-color="#66BC4D"/>
<stop offset="1" stop-color="#FC9B00"/>
</linearGradient>
<linearGradient id="paint1_linear_119_549" x1="99.2721" y1="165.768" x2="163.655" y2="76.8711" gradientUnits="userSpaceOnUse">
<stop stop-color="#007DB7"/>
<stop offset="1" stop-color="#2F9C18"/>
</linearGradient>
<linearGradient id="paint2_linear_119_549" x1="8.60373" y1="-13.9683" x2="221.096" y2="117.106" gradientUnits="userSpaceOnUse">
<stop stop-color="#FCF529"/>
<stop offset="1" stop-color="#FCC729"/>
</linearGradient>
<linearGradient id="paint3_linear_119_549" x1="49.8079" y1="61.1644" x2="199.665" y2="164.44" gradientUnits="userSpaceOnUse">
<stop offset="0.01" stop-color="#B8E93F"/>
<stop offset="1" stop-color="#66BC4D"/>
</linearGradient>
<linearGradient id="paint4_linear_119_549" x1="95.7201" y1="124.598" x2="160.408" y2="214.862" gradientUnits="userSpaceOnUse">
<stop stop-color="#00ABEB"/>
<stop offset="0.21" stop-color="#00A7E6"/>
<stop offset="0.46" stop-color="#009AD8"/>
<stop offset="0.73" stop-color="#0085C0"/>
<stop offset="1" stop-color="#006AA1"/>
</linearGradient>
</defs>
</svg>
