<svg width="320" height="595" fill="none" xmlns="http://www.w3.org/2000/svg"><path d="M-91.337 568.091c0 39.403-66.716-103.966-128.329-100.503-61.612 3.462-73.711 69.241-173.287 81.501-99.575 12.259-298.894-87.642-298.894-87.642S-1156.33 11.303-827.612 3.517C-498.895-4.269 584.341 133.556 876.432-36.846c292.088-170.402 121.627 863.738-36.476 582.669-158.103-281.069-347.231 37.671-403.399 22.671-56.169-15-157.669-63.84-228.625-63.84-70.956 0-299.269 24.034-299.269 63.437Z" fill="url(#a)"/><defs><linearGradient id="a" x1="346.873" y1="-342.904" x2="-764.223" y2="-72.122" gradientUnits="userSpaceOnUse"><stop stop-color="#5C6BC0"/><stop offset="1" stop-color="#5A1D45"/></linearGradient></defs></svg>