<svg width="967" height="207" fill="none" xmlns="http://www.w3.org/2000/svg"><path transform="matrix(1 -.0027 .00593 .99998 10 200.999)" stroke="#F3F3F3" d="M0-.5h946"/><path transform="matrix(1 -.0027 .00593 .99998 10 162.891)" stroke="#F3F3F3" d="M0-.5h946"/><path transform="matrix(1 -.0027 .00593 .99998 10 124.783)" stroke="#F3F3F3" d="M0-.5h946"/><path transform="matrix(1 -.0027 .00593 .99998 10 86.674)" stroke="#F3F3F3" d="M0-.5h946"/><path transform="matrix(1 -.0027 .00593 .99998 10 48.566)" stroke="#F3F3F3" d="M0-.5h946"/><path transform="matrix(1 -.0027 .00593 .99998 10 10.458)" stroke="#F3F3F3" d="M0-.5h946"/><g filter="url(#a)"><path d="M11.421 107.344c21.242-7.535 75.145-12.918 126.125-12.918 63.725 0 81.39-1.292 126.596-9.689 45.207-8.396 116.557-29.388 156.317-29.388h203.156c30.501 0 148.147-8.397 200.434-18.085 52.287-9.689 96.949-28.097 132.352-28.097" stroke="#F3BC28" stroke-width="2"/></g><g filter="url(#b)"><path d="M11.228 192.792c20.72-6.626 74.595-26.124 124.325-26.124 62.162 0 78.101 7.383 122.199 0s157.266-5.679 196.051-5.679h205.082c29.753 0 126.45-13.63 177.455-22.148 51.005-8.519 83.935-9.371 118.47-9.371" stroke="#0085C0" stroke-width="2"/></g><g filter="url(#c)"><path d="M14.285 179.893c20.97-8.026 75.49-24.079 125.816-24.079 62.909 0 74.752-10.05 119.38-18.993 44.627-8.944 115.063-18.919 154.313-18.919h228.513c30.11 0 137.108-14.791 188.725-25.11 51.617-10.32 90.867-19.607 125.816-19.607" stroke="#66BC4D" stroke-width="2"/></g><circle cx="10.644" cy="106.885" r="4" fill="#F3BC28"/><circle cx="10.644" cy="179.519" r="4" fill="#66BC4D"/><circle cx="10.644" cy="191.437" r="4" fill="#0085C0"/><circle cx="954.668" cy="8" r="4" fill="#F3BC28"/><circle cx="954.668" cy="71.944" r="4" fill="#66BC4D"/><circle cx="954.668" cy="128.784" r="4" fill="#0085C0"/><defs><filter id="a" x=".968" y=".746" width="965.551" height="120.357" filterUnits="userSpaceOnUse" color-interpolation-filters="sRGB"><feFlood flood-opacity="0" result="BackgroundImageFix"/><feColorMatrix in="SourceAlpha" values="0 0 0 0 0 0 0 0 0 0 0 0 0 0 0 0 0 0 127 0" result="hardAlpha"/><feOffset dy="2.698"/><feGaussianBlur stdDeviation="5.059"/><feComposite in2="hardAlpha" operator="out"/><feColorMatrix values="0 0 0 0 0.952941 0 0 0 0 0.737255 0 0 0 0 0.156863 0 0 0 1 0"/><feBlend in2="BackgroundImageFix" result="effect1_dropShadow_119_639"/><feBlend in="SourceGraphic" in2="effect1_dropShadow_119_639" result="shape"/></filter><filter id="b" x=".805" y="121.05" width="964.124" height="85.511" filterUnits="userSpaceOnUse" color-interpolation-filters="sRGB"><feFlood flood-opacity="0" result="BackgroundImageFix"/><feColorMatrix in="SourceAlpha" values="0 0 0 0 0 0 0 0 0 0 0 0 0 0 0 0 0 0 127 0" result="hardAlpha"/><feOffset dy="2.698"/><feGaussianBlur stdDeviation="5.059"/><feComposite in2="hardAlpha" operator="out"/><feColorMatrix values="0 0 0 0 0 0 0 0 0 0.521569 0 0 0 0 0.752941 0 0 0 1 0"/><feBlend in2="BackgroundImageFix" result="effect1_dropShadow_119_639"/><feBlend in="SourceGraphic" in2="effect1_dropShadow_119_639" result="shape"/></filter><filter id="c" x="3.809" y="64.764" width="963.158" height="128.88" filterUnits="userSpaceOnUse" color-interpolation-filters="sRGB"><feFlood flood-opacity="0" result="BackgroundImageFix"/><feColorMatrix in="SourceAlpha" values="0 0 0 0 0 0 0 0 0 0 0 0 0 0 0 0 0 0 127 0" result="hardAlpha"/><feOffset dy="2.698"/><feGaussianBlur stdDeviation="5.059"/><feComposite in2="hardAlpha" operator="out"/><feColorMatrix values="0 0 0 0 0.4 0 0 0 0 0.737255 0 0 0 0 0.301961 0 0 0 1 0"/><feBlend in2="BackgroundImageFix" result="effect1_dropShadow_119_639"/><feBlend in="SourceGraphic" in2="effect1_dropShadow_119_639" result="shape"/></filter></defs></svg>