<svg width="287" height="64" fill="none" xmlns="http://www.w3.org/2000/svg"><g filter="url(#a)"><path d="M189.012 50.643c-86.329 15.479-124.663-7.162-152.465-23.83C22.759 18.546 13.274 8.595 4.767-.66l50.86-.011 95.085-.043c38.312-.009 80.648.004 131.427-.03-28.485 23.527-52.795 44.155-93.127 51.386Z" fill="url(#b)"/></g><path d="M169.251 18.208c1.399.247 2.512.922 3.339 2.024.848 1.102 1.272 2.463 1.272 4.082 0 1.012-.18 1.934-.54 2.767a5.626 5.626 0 0 1-1.495 2.159c-.636.607-1.41 1.068-2.322 1.383-.89.337-1.886.506-2.989.506-1.611 0-3.021-.349-4.23-1.046a6.592 6.592 0 0 1-2.734-2.834l1.494-1.45a5.364 5.364 0 0 0 2.035 2.361c.912.585 2.057.877 3.435.877 1.59 0 2.841-.416 3.753-1.248.911-.81 1.367-1.98 1.367-3.509 0-1.551-.477-2.777-1.431-3.677-.954-.9-2.332-1.35-4.134-1.35h-.795v-1.956h.858c1.633 0 2.884-.394 3.753-1.18.869-.81 1.304-1.856 1.304-3.138 0-.675-.117-1.271-.35-1.788a3.388 3.388 0 0 0-.986-1.282 3.93 3.93 0 0 0-1.463-.81 5.81 5.81 0 0 0-1.812-.27c-1.209 0-2.279.292-3.212.877-.912.563-1.601 1.35-2.067 2.362l-1.4-1.417a5.195 5.195 0 0 1 1.082-1.586c.466-.495.996-.91 1.59-1.248a7.781 7.781 0 0 1 1.971-.776 8.196 8.196 0 0 1 2.226-.304c.976 0 1.866.147 2.672.439a6.197 6.197 0 0 1 2.131 1.248 5.177 5.177 0 0 1 1.367 1.89c.339.742.509 1.563.509 2.462 0 .675-.096 1.327-.286 1.957a5.691 5.691 0 0 1-.827 1.653A5.129 5.129 0 0 1 171 17.601a4.424 4.424 0 0 1-1.749.607Z" fill="url(#c)"/><path d="M188.177 25.424c.492 0 .929.115 1.309.343.38.23.671.55.872.965.209.415.314.9.314 1.458 0 .557-.105 1.05-.314 1.479-.208.421-.503.75-.883.986-.373.229-.806.343-1.298.343-.462 0-.861-.097-1.197-.29a1.797 1.797 0 0 1-.738-.835v1.05h-.682v-7.889h.671v3.527c.164-.372.414-.654.749-.847.336-.193.735-.29 1.197-.29Zm-.078 4.995c.582 0 1.036-.196 1.365-.59.328-.392.492-.939.492-1.64 0-.692-.164-1.232-.492-1.618-.329-.386-.787-.578-1.376-.578-.589 0-1.044.193-1.365.578-.321.386-.481.933-.481 1.64 0 .708.16 1.254.481 1.64.321.379.779.568 1.376.568ZM199.105 25.553l-2.64 5.927c-.261.586-.589 1.015-.984 1.287-.388.278-.876.475-1.465.589l-.135-.514c.537-.122.94-.28 1.209-.472.275-.193.507-.497.693-.911l.235-.525-2.394-5.38h.727l2.025 4.715 2.036-4.716h.693Z" fill="#000"/><ellipse cx="179.058" cy="30.64" rx=".542" ry=".543" fill="#000"/><path d="M148.251 30.857c-.953 0-1.799-.239-2.536-.717a5.944 5.944 0 0 1-1.755-1.847v6.975h-1.474v-15.95h1.322v2.195a5.381 5.381 0 0 1 1.799-1.716 4.539 4.539 0 0 1 2.406-.674c.78 0 1.495.167 2.145.5a5.298 5.298 0 0 1 1.691 1.304 5.758 5.758 0 0 1 1.105 1.869c.275.71.412 1.441.412 2.194 0 .797-.123 1.55-.368 2.26-.246.71-.6 1.333-1.062 1.869-.448.536-.99.963-1.626 1.282a4.616 4.616 0 0 1-2.059.456Zm-.412-1.303c.607 0 1.156-.13 1.648-.392a4.03 4.03 0 0 0 1.278-1.02 4.69 4.69 0 0 0 .824-1.457 5.21 5.21 0 0 0 .282-1.695 4.8 4.8 0 0 0-1.214-3.194 4.191 4.191 0 0 0-1.344-1 3.714 3.714 0 0 0-1.647-.369c-.376 0-.773.08-1.192.24a4.617 4.617 0 0 0-1.149.607c-.346.247-.65.544-.91.891a2.387 2.387 0 0 0-.455 1.065v3.477c.173.406.39.782.65 1.13.275.348.578.652.91.913.347.246.716.441 1.106.586.39.145.794.218 1.213.218ZM124.046 30.857c-.824 0-1.575-.152-2.254-.456a5.82 5.82 0 0 1-1.777-1.282 5.883 5.883 0 0 1-1.149-1.869 6.162 6.162 0 0 1-.412-2.238c0-.797.138-1.55.412-2.26a6.199 6.199 0 0 1 1.17-1.869 5.825 5.825 0 0 1 1.778-1.282 5.187 5.187 0 0 1 2.232-.478c.809 0 1.553.16 2.232.478a5.495 5.495 0 0 1 1.778 1.282 5.696 5.696 0 0 1 1.17 1.87c.289.709.433 1.462.433 2.259 0 .782-.137 1.528-.411 2.238a5.682 5.682 0 0 1-1.171 1.869A5.48 5.48 0 0 1 126.3 30.4c-.679.304-1.43.456-2.254.456Zm-4.096-5.823c0 .637.108 1.231.325 1.782.217.536.506 1.014.867 1.434.376.405.809.724 1.3.956a3.808 3.808 0 0 0 1.604.348c.564 0 1.091-.116 1.582-.348a4.412 4.412 0 0 0 1.322-.978 4.8 4.8 0 0 0 1.214-3.238c0-.623-.108-1.21-.325-1.76a4.472 4.472 0 0 0-.889-1.456 3.974 3.974 0 0 0-1.322-.978 3.48 3.48 0 0 0-1.582-.369c-.563 0-1.091.123-1.582.37a4.047 4.047 0 0 0-1.3.977c-.376.42-.672.913-.889 1.478a4.815 4.815 0 0 0-.325 1.782ZM101.566 30.097a6.956 6.956 0 0 1-.39.174 5.866 5.866 0 0 1-.563.217 6.744 6.744 0 0 1-.737.195 4.193 4.193 0 0 1-.867.087c-.318 0-.622-.043-.91-.13a2.22 2.22 0 0 1-.76-.391 2.092 2.092 0 0 1-.52-.695 2.215 2.215 0 0 1-.194-.957v-8.105h-1.56V19.32h1.56v-3.825h1.474v3.825h2.6v1.173h-2.6v7.693c.028.42.173.731.433.934.275.188.585.282.932.282.419 0 .787-.065 1.105-.195.318-.145.52-.246.607-.304l.39 1.195ZM81.145 30.64 76.55 19.32h1.517l3.88 9.952 3.9-9.952h1.431L82.684 30.64h-1.54Z" fill="#000"/><path fill-rule="evenodd" clip-rule="evenodd" d="M112.252 16.348a.758.758 0 0 1 .231 1.045 13.5 13.5 0 0 0-2.11 7.271c0 7.48 6.048 13.544 13.509 13.544 6.762 0 12.365-4.982 13.354-11.485a.755.755 0 1 1 1.492.228c-1.099 7.231-7.327 12.77-14.846 12.77-8.294 0-15.018-6.74-15.018-15.057 0-2.974.861-5.749 2.346-8.085a.753.753 0 0 1 1.042-.23Z" fill="url(#d)"/><path d="M115.725 10.696c.348-.17.749.1.723.488l-.683 9.968c-.035.52-.736.651-.957.18l-2.126-4.528a.503.503 0 0 0-.415-.288l-5.401-.43c-.51-.04-.641-.73-.181-.955l9.04-4.435Z" fill="url(#e)"/><path d="M121.206 5.56a.466.466 0 0 1 .378-.533l2.724-.5a.45.45 0 0 1 .53.367.466.466 0 0 1-.378.533l-2.724.5a.45.45 0 0 1-.53-.367ZM120.27 4.118a.43.43 0 0 1-.105-.624l1.598-2.252a.478.478 0 0 1 .642-.118c.202.147.25.432.107.633L120.903 4a.45.45 0 0 1-.633.117ZM114.054 2.641a.465.465 0 0 1 .639-.117l2.236 1.537a.446.446 0 0 1 .106.63.465.465 0 0 1-.639.118l-2.236-1.537a.446.446 0 0 1-.106-.63ZM120.819 7.236a.466.466 0 0 1 .64-.117l2.236 1.537a.446.446 0 0 1 .106.63.466.466 0 0 1-.64.118l-2.236-1.538a.446.446 0 0 1-.106-.63ZM118.016 3.391l-.45-2.663a.46.46 0 0 1 .373-.526.444.444 0 0 1 .522.362l.451 2.663a.461.461 0 0 1-.373.526.445.445 0 0 1-.523-.362Z" fill="#5C6ABF"/><path d="m122.408 1.13-2.139 2.983a.429.429 0 0 1-.106-.622l1.601-2.244a.48.48 0 0 1 .644-.118Z" fill="#5C6ABF"/><defs><linearGradient id="b" x1="27.595" y1="-102.399" x2="222.54" y2="54.704" gradientUnits="userSpaceOnUse"><stop stop-color="#F6A21E"/><stop offset="1" stop-color="#F1CA2D"/></linearGradient><linearGradient id="c" x1="166.707" y1="6.737" x2="166.707" y2="31.129" gradientUnits="userSpaceOnUse"><stop stop-color="#56295A"/><stop offset="1" stop-color="#5C6ABF"/></linearGradient><linearGradient id="d" x1="109.368" y1="23.306" x2="134.598" y2="8.153" gradientUnits="userSpaceOnUse"><stop/><stop offset=".807" stop-color="#3D3D3D" stop-opacity="0"/></linearGradient><linearGradient id="e" x1="114.743" y1="12.166" x2="106.48" y2="24.418" gradientUnits="userSpaceOnUse"><stop stop-color="#5C6ABF"/><stop offset="1" stop-color="#56295A"/></linearGradient><filter id="a" x=".766" y="-.743" width="285.373" height="64.555" filterUnits="userSpaceOnUse" color-interpolation-filters="sRGB"><feFlood flood-opacity="0" result="BackgroundImageFix"/><feColorMatrix in="SourceAlpha" values="0 0 0 0 0 0 0 0 0 0 0 0 0 0 0 0 0 0 127 0" result="hardAlpha"/><feOffset dy="4"/><feGaussianBlur stdDeviation="2"/><feColorMatrix values="0 0 0 0 0 0 0 0 0 0 0 0 0 0 0 0 0 0 0.25 0"/><feBlend in2="BackgroundImageFix" result="effect1_dropShadow_45_1096"/><feBlend in="SourceGraphic" in2="effect1_dropShadow_45_1096" result="shape"/></filter></defs></svg>