<svg width="559" height="84" fill="none" xmlns="http://www.w3.org/2000/svg"><g filter="url(#a)"><path d="M99.065 40.917C54.652 14.127 48.425-27.687-.935-26l555-55C393.26-39.558 378.179 50.8 277.278 68.975 176.377 87.15 131.565 60.52 99.065 40.917Z" fill="url(#b)"/></g><path d="M266.728 30.963c1.633.288 2.931 1.073 3.896 2.356.99 1.282 1.484 2.866 1.484 4.75 0 1.178-.21 2.251-.631 3.22a6.533 6.533 0 0 1-1.743 2.512c-.743.707-1.646 1.244-2.709 1.61-1.039.393-2.202.589-3.488.589-1.88 0-3.525-.406-4.935-1.217-1.41-.785-2.474-1.885-3.191-3.298l1.744-1.688a6.244 6.244 0 0 0 2.374 2.748c1.064.68 2.4 1.02 4.008 1.02 1.855 0 3.315-.483 4.378-1.452 1.064-.942 1.596-2.303 1.596-4.083 0-1.806-.557-3.233-1.67-4.28-1.113-1.047-2.721-1.57-4.824-1.57h-.927v-2.277h1.002c1.904 0 3.364-.458 4.378-1.374 1.014-.943 1.521-2.16 1.521-3.652 0-.785-.136-1.479-.408-2.08a3.941 3.941 0 0 0-1.15-1.492 4.59 4.59 0 0 0-1.707-.943 6.798 6.798 0 0 0-2.115-.314c-1.41 0-2.659.34-3.748 1.021-1.063.654-1.867 1.57-2.412 2.748l-1.632-1.649a6.045 6.045 0 0 1 1.261-1.845 7.905 7.905 0 0 1 1.856-1.453 9.084 9.084 0 0 1 2.3-.903 9.585 9.585 0 0 1 2.598-.353c1.138 0 2.177.17 3.117.51.964.34 1.793.825 2.486 1.453a6.025 6.025 0 0 1 1.595 2.199c.396.864.594 1.819.594 2.866a7.78 7.78 0 0 1-.334 2.277 6.597 6.597 0 0 1-.965 1.924c-.42.55-.94 1.02-1.558 1.413-.594.367-1.274.602-2.041.707Z" fill="url(#c)"/><path d="M288.811 39.362c.574 0 1.083.133 1.527.399.443.266.783.64 1.018 1.122.243.483.365 1.048.365 1.697 0 .648-.122 1.222-.365 1.721-.244.49-.588.873-1.031 1.148-.436.266-.94.399-1.514.399-.54 0-1.005-.112-1.397-.337a2.09 2.09 0 0 1-.861-.973v1.223h-.797v-9.18h.783v4.103c.192-.432.483-.76.875-.985.392-.225.857-.337 1.397-.337Zm-.092 5.812c.679 0 1.21-.228 1.592-.686.383-.457.575-1.093.575-1.908 0-.807-.192-1.434-.575-1.884-.382-.449-.918-.673-1.605-.673-.687 0-1.218.224-1.592.673-.374.45-.561 1.086-.561 1.909s.187 1.46.561 1.908c.374.441.909.661 1.605.661ZM301.561 39.511l-3.08 6.898c-.304.682-.687 1.181-1.148 1.497-.453.324-1.023.553-1.71.686l-.157-.599c.627-.141 1.097-.324 1.41-.549.322-.224.592-.577.809-1.06l.274-.61-2.793-6.263h.848L298.377 45l2.375-5.489h.809Z" fill="#000"/><circle cx="278.17" cy="45.431" r=".632" fill="#000"/><path d="M242.225 45.684c-1.112 0-2.099-.278-2.959-.834a6.935 6.935 0 0 1-2.048-2.15v8.117h-1.719V32.257h1.542v2.554a6.269 6.269 0 0 1 2.099-1.998 5.304 5.304 0 0 1 2.807-.784c.91 0 1.745.194 2.504.582.758.37 1.416.877 1.972 1.517a6.72 6.72 0 0 1 1.29 2.175c.32.826.48 1.678.48 2.554 0 .927-.143 1.804-.43 2.63a6.568 6.568 0 0 1-1.239 2.175 5.87 5.87 0 0 1-1.896 1.492c-.725.354-1.526.531-2.403.531Zm-.48-1.517c.708 0 1.348-.152 1.922-.456.59-.303 1.087-.7 1.492-1.188a5.47 5.47 0 0 0 .961-1.694c.219-.641.328-1.298.328-1.973 0-.708-.126-1.382-.379-2.023a5.574 5.574 0 0 0-1.037-1.694 4.877 4.877 0 0 0-1.568-1.163 4.338 4.338 0 0 0-1.922-.43c-.438 0-.902.092-1.39.278a5.404 5.404 0 0 0-1.341.708 4.788 4.788 0 0 0-1.062 1.037 2.79 2.79 0 0 0-.531 1.239v4.046c.202.472.455.91.759 1.315.32.405.674.759 1.062 1.062.404.287.834.514 1.29.683.455.168.927.253 1.416.253ZM213.983 45.684c-.961 0-1.838-.177-2.63-.531a6.793 6.793 0 0 1-2.074-1.492 6.825 6.825 0 0 1-1.34-2.175 7.148 7.148 0 0 1-.481-2.604c0-.928.161-1.804.481-2.63a7.188 7.188 0 0 1 1.366-2.175 6.789 6.789 0 0 1 2.073-1.492c.793-.371 1.661-.557 2.605-.557s1.812.186 2.605.557c.809.37 1.5.868 2.073 1.492a6.618 6.618 0 0 1 1.366 2.175c.337.826.505 1.702.505 2.63 0 .91-.16 1.778-.48 2.604a6.585 6.585 0 0 1-1.366 2.175 6.402 6.402 0 0 1-2.073 1.492c-.793.354-1.669.531-2.63.531Zm-4.78-6.777c0 .742.127 1.433.38 2.073.253.624.59 1.18 1.011 1.67.439.471.944.842 1.518 1.112.59.27 1.213.405 1.871.405.657 0 1.273-.135 1.846-.405a5.156 5.156 0 0 0 1.542-1.138 5.594 5.594 0 0 0 1.417-3.768c0-.725-.127-1.407-.38-2.048a5.195 5.195 0 0 0-1.037-1.694 4.641 4.641 0 0 0-1.542-1.138 4.072 4.072 0 0 0-1.846-.43c-.658 0-1.273.143-1.846.43a4.724 4.724 0 0 0-1.517 1.138 5.5 5.5 0 0 0-1.037 1.72 5.595 5.595 0 0 0-.38 2.073ZM187.754 44.799c-.102.05-.253.118-.456.202a6.737 6.737 0 0 1-.657.253c-.253.085-.54.16-.86.228-.32.067-.657.1-1.011.1-.371 0-.725-.05-1.063-.15a2.596 2.596 0 0 1-.885-.456 2.437 2.437 0 0 1-.607-.81 2.582 2.582 0 0 1-.227-1.112v-9.432h-1.821v-1.366h1.821v-4.45h1.719v4.45h3.035v1.366h-3.035v8.952c.034.489.203.851.506 1.087.321.22.683.329 1.088.329.489 0 .918-.076 1.289-.228.371-.168.607-.286.708-.354l.456 1.391ZM163.926 45.431l-5.361-13.175h1.77l4.527 11.582 4.551-11.582h1.669l-5.361 13.175h-1.795Z" fill="#000"/><path fill-rule="evenodd" clip-rule="evenodd" d="M200.222 28.799a.88.88 0 0 1 .269 1.216 15.687 15.687 0 0 0-2.461 8.462c0 8.705 7.057 15.762 15.762 15.762 7.89 0 14.427-5.798 15.581-13.366a.88.88 0 1 1 1.741.265C229.831 49.553 222.565 56 213.792 56c-9.678 0-17.523-7.845-17.523-17.523 0-3.461 1.004-6.69 2.737-9.409a.88.88 0 0 1 1.216-.27Z" fill="url(#d)"/><path d="M204.274 22.22a.587.587 0 0 1 .843.568l-.796 11.602c-.042.603-.859.757-1.117.21l-2.48-5.271a.588.588 0 0 0-.485-.335l-6.301-.5c-.596-.047-.748-.85-.212-1.112l10.548-5.161Z" fill="url(#e)"/><path d="M210.669 16.524a.556.556 0 0 1 .441-.637l3.178-.597a.527.527 0 0 1 .618.438.556.556 0 0 1-.441.637l-3.178.597a.527.527 0 0 1-.618-.438ZM209.576 14.8a.524.524 0 0 1-.122-.745l1.865-2.691a.55.55 0 0 1 .749-.142.555.555 0 0 1 .124.757l-1.877 2.682a.518.518 0 0 1-.739.14ZM202.324 13.036a.535.535 0 0 1 .746-.14l2.609 1.837c.24.169.295.506.123.753a.535.535 0 0 1-.746.14l-2.609-1.837a.542.542 0 0 1-.123-.753ZM210.217 18.528a.536.536 0 0 1 .747-.14l2.609 1.837c.24.169.295.506.123.753a.535.535 0 0 1-.746.14l-2.609-1.837a.543.543 0 0 1-.124-.753ZM206.947 13.933l-.526-3.184a.55.55 0 0 1 .435-.628.522.522 0 0 1 .611.432l.525 3.183a.55.55 0 0 1-.435.629.52.52 0 0 1-.61-.432Z" fill="#5C6ABF"/><path d="m212.071 11.229-2.496 3.566a.52.52 0 0 1-.123-.744l1.867-2.682a.554.554 0 0 1 .752-.14Z" fill="#5C6ABF"/><defs><linearGradient id="b" x1="88.565" y1="-111" x2="317.533" y2="72.425" gradientUnits="userSpaceOnUse"><stop stop-color="#F6A21E"/><stop offset="1" stop-color="#F1CA2D"/></linearGradient><linearGradient id="c" x1="263.759" y1="17.614" x2="263.759" y2="46" gradientUnits="userSpaceOnUse"><stop stop-color="#56295A"/><stop offset="1" stop-color="#5C6ABF"/></linearGradient><linearGradient id="d" x1="196.856" y1="36.896" x2="226.254" y2="19.195" gradientUnits="userSpaceOnUse"><stop/><stop offset=".807" stop-color="#3D3D3D" stop-opacity="0"/></linearGradient><linearGradient id="e" x1="203.128" y1="23.932" x2="193.522" y2="38.213" gradientUnits="userSpaceOnUse"><stop stop-color="#5C6ABF"/><stop offset="1" stop-color="#56295A"/></linearGradient><filter id="a" x="-4.935" y="-81" width="563" height="164.038" filterUnits="userSpaceOnUse" color-interpolation-filters="sRGB"><feFlood flood-opacity="0" result="BackgroundImageFix"/><feColorMatrix in="SourceAlpha" values="0 0 0 0 0 0 0 0 0 0 0 0 0 0 0 0 0 0 127 0" result="hardAlpha"/><feOffset dy="4"/><feGaussianBlur stdDeviation="2"/><feColorMatrix values="0 0 0 0 0 0 0 0 0 0 0 0 0 0 0 0 0 0 0.25 0"/><feBlend in2="BackgroundImageFix" result="effect1_dropShadow_22_891"/><feBlend in="SourceGraphic" in2="effect1_dropShadow_22_891" result="shape"/></filter></defs></svg>