<svg width="152" height="147" fill="none" xmlns="http://www.w3.org/2000/svg"><path d="M144.08 141.667H7.92a3.16 3.16 0 0 1-3.16-3.16V8.807a3.16 3.16 0 0 1 3.16-3.16h136.16a3.16 3.16 0 0 1 3.16 3.16v129.7a3.16 3.16 0 0 1-3.16 3.16Z" fill="#fff"/><mask id="a" style="mask-type:luminance" maskUnits="userSpaceOnUse" x="4" y="5" width="144" height="138"><path d="M147.64 5.247H4.36v136.82h143.28V5.247Z" fill="#fff"/></mask><g mask="url(#a)"><path d="M144.08 141.667H7.92a3.16 3.16 0 0 1-3.16-3.16V8.807a3.16 3.16 0 0 1 3.16-3.16h136.16a3.16 3.16 0 0 1 3.16 3.16v129.7a3.16 3.16 0 0 1-3.16 3.16Z" stroke="#5F6368" stroke-width=".79" stroke-miterlimit="10"/></g><path d="M29.88 103.637a5.255 5.255 0 0 1-1.93-1.93c-.48-.82-.71-1.73-.71-2.72 0-.99.24-1.9.71-2.72.47-.82 1.12-1.46 1.93-1.93.81-.47 1.7-.7 2.66-.7.75 0 1.46.13 2.12.4.66.27 1.21.64 1.64 1.13l-.87.87c-.32-.4-.74-.71-1.24-.92a4.23 4.23 0 0 0-1.63-.32c-.72 0-1.4.17-2.02.52-.62.35-1.12.84-1.5 1.47-.38.63-.56 1.37-.56 2.2 0 .83.19 1.56.56 2.2.37.64.88 1.12 1.51 1.47.63.35 1.3.52 2.02.52s1.26-.11 1.72-.32c.46-.21.86-.5 1.19-.85.25-.27.45-.59.6-.97.15-.38.25-.79.29-1.25h-3.79v-1.13h4.92c.05.27.07.51.07.74 0 .63-.1 1.24-.3 1.84-.2.6-.52 1.12-.96 1.57-.94 1.02-2.2 1.53-3.76 1.53-.96 0-1.85-.23-2.66-.7h-.01Zm10.69.19c-.57-.34-1.02-.81-1.34-1.4-.32-.59-.48-1.24-.48-1.96s.16-1.37.48-1.96c.32-.59.77-1.06 1.34-1.4.57-.34 1.22-.51 1.93-.51s1.36.17 1.93.51c.57.34 1.02.81 1.34 1.4.32.59.48 1.24.48 1.96s-.16 1.37-.48 1.96c-.32.59-.77 1.06-1.34 1.4-.57.34-1.22.51-1.93.51s-1.36-.17-1.93-.51Zm3.18-.92c.39-.22.7-.55.93-.97.23-.42.35-.91.35-1.47 0-.56-.12-1.05-.35-1.47a2.39 2.39 0 0 0-.93-.96c-.39-.22-.8-.34-1.25-.34-.45 0-.87.11-1.26.34-.39.22-.7.55-.94.96-.23.42-.35.91-.35 1.47 0 .56.12 1.05.35 1.47a2.507 2.507 0 0 0 2.2 1.31c.45 0 .87-.11 1.25-.34Zm5.33.92c-.57-.34-1.02-.81-1.34-1.4-.32-.59-.48-1.24-.48-1.96s.16-1.37.48-1.96c.32-.59.77-1.06 1.34-1.4.57-.34 1.22-.51 1.93-.51s1.36.17 1.93.51c.57.34 1.02.81 1.34 1.4.32.59.48 1.24.48 1.96s-.16 1.37-.48 1.96c-.32.59-.77 1.06-1.34 1.4-.57.34-1.22.51-1.93.51s-1.36-.17-1.93-.51Zm3.18-.92c.39-.22.7-.55.93-.97.23-.42.35-.91.35-1.47 0-.56-.12-1.05-.35-1.47a2.39 2.39 0 0 0-.93-.96c-.39-.22-.8-.34-1.25-.34-.45 0-.87.11-1.26.34-.39.22-.7.55-.94.96-.23.42-.35.91-.35 1.47 0 .56.12 1.05.35 1.47a2.507 2.507 0 0 0 2.2 1.31c.45 0 .87-.11 1.25-.34Zm4.98 3.92c-.56-.4-.93-.88-1.12-1.44l1.1-.47c.16.42.43.76.81 1.02.38.26.82.39 1.34.39.75 0 1.34-.21 1.75-.63.41-.42.62-1.02.62-1.8v-.81h-.06c-.24.37-.57.67-1.01.91-.43.23-.93.35-1.48.35-.63 0-1.2-.16-1.72-.49-.52-.33-.93-.79-1.24-1.37-.31-.59-.46-1.26-.46-2.01 0-.75.15-1.41.46-2 .31-.59.72-1.05 1.24-1.38.52-.33 1.09-.49 1.72-.49.55 0 1.05.12 1.48.35.43.23.77.54 1.01.92h.06v-1.04h1.16v7.01c0 1.17-.32 2.07-.97 2.68-.65.61-1.5.92-2.56.92-.86 0-1.57-.2-2.12-.6l-.01-.02Zm3.32-3.92c.36-.22.64-.54.86-.96.21-.42.32-.91.32-1.48s-.11-1.08-.32-1.5c-.21-.42-.5-.73-.86-.95-.36-.22-.76-.33-1.19-.33-.43 0-.84.11-1.2.33-.36.22-.65.54-.87.96-.21.42-.32.91-.32 1.48s.11 1.07.32 1.49c.21.42.5.74.87.96.37.22.76.33 1.2.33.44 0 .84-.11 1.19-.33Zm4.13-9.03h1.22v10.24h-1.22v-10.24Zm4.39 9.97c-.55-.33-.98-.79-1.29-1.38-.31-.59-.46-1.25-.46-1.98s.15-1.35.44-1.95c.29-.59.7-1.06 1.24-1.42.53-.35 1.15-.53 1.86-.53.71 0 1.33.16 1.86.48.52.32.93.76 1.21 1.32.28.56.42 1.21.42 1.93 0 .14-.01.27-.04.37h-5.76c.03.55.16 1.02.4 1.4.24.38.54.67.91.86.37.19.75.29 1.15.29.93 0 1.65-.44 2.16-1.32l1.03.5c-.31.59-.74 1.06-1.28 1.4-.54.34-1.19.51-1.95.51-.7 0-1.32-.17-1.87-.5l-.03.02Zm3.98-4.15c-.02-.3-.11-.61-.26-.92-.15-.3-.39-.56-.72-.77-.33-.21-.74-.31-1.24-.31-.57 0-1.06.18-1.45.55-.4.37-.66.85-.78 1.45h4.45Zm5.69-5.82h3.45c.57 0 1.1.13 1.59.39s.87.62 1.17 1.08c.29.46.44.98.44 1.57 0 .59-.15 1.1-.44 1.57-.29.46-.68.82-1.17 1.08-.49.26-1.02.39-1.59.39h-2.25v4.18h-1.2v-10.26Zm3.48 4.9a1.9 1.9 0 0 0 1.69-.97c.16-.29.24-.59.24-.9 0-.31-.08-.61-.24-.9a1.9 1.9 0 0 0-1.69-.97h-2.27v3.75h2.27v-.01Zm5.61 5.25c-.42-.21-.74-.5-.97-.87a2.3 2.3 0 0 1-.34-1.25c0-.77.29-1.38.87-1.81.58-.43 1.32-.65 2.2-.65.44 0 .85.05 1.22.14.38.1.67.21.87.33v-.44c0-.54-.19-.98-.57-1.31-.38-.33-.86-.49-1.44-.49-.41 0-.79.09-1.13.26-.34.18-.61.42-.81.74l-.92-.69c.29-.44.68-.78 1.18-1.03.5-.25 1.06-.37 1.67-.37.99 0 1.77.26 2.34.78.57.52.85 1.23.85 2.12v4.62H91.7v-1.04h-.06c-.21.35-.52.65-.94.9-.42.25-.89.37-1.42.37-.53 0-1.01-.1-1.43-.31h-.01Zm2.69-1.07c.35-.21.63-.49.84-.84.21-.35.31-.74.31-1.16-.23-.15-.51-.28-.84-.37a4.05 4.05 0 0 0-1.06-.14c-.67 0-1.17.14-1.51.42-.34.28-.51.63-.51 1.07 0 .4.15.72.46.97.31.25.69.37 1.16.37.41 0 .79-.1 1.14-.31l.01-.01Zm3.8-6.02h1.16v1.16h.06c.17-.43.46-.76.87-1s.86-.36 1.34-.36c.21 0 .39.01.53.04v1.24c-.16-.04-.38-.06-.66-.06-.62 0-1.12.21-1.51.61-.39.41-.58.94-.58 1.6v4.05h-1.22v-7.29l.01.01Zm7.4 7.26c-.25-.1-.46-.23-.64-.39-.19-.18-.33-.4-.43-.64-.1-.24-.14-.54-.14-.89v-4.35h-1.27v-1.1h1.27v-2.06h1.21v2.06h1.77v1.1h-1.77v4.06c0 .41.08.71.23.91.18.21.44.32.79.32.28 0 .54-.08.8-.24v1.19c-.14.07-.29.11-.44.14-.15.03-.34.04-.56.04-.3 0-.57-.05-.82-.15Zm3.17-7.38h1.16v1.07h.06c.2-.36.52-.67.96-.92.44-.25.91-.38 1.4-.38.88 0 1.55.25 2.01.76.46.51.69 1.2.69 2.08v4.68h-1.22v-4.49c0-.68-.16-1.17-.49-1.47-.32-.3-.77-.46-1.33-.46-.39 0-.74.11-1.05.33-.31.22-.55.51-.72.87-.17.36-.26.73-.26 1.12v4.1h-1.22v-7.29h.01Zm9.39 7.02c-.55-.33-.98-.79-1.29-1.38-.31-.59-.46-1.25-.46-1.98s.15-1.35.44-1.95c.29-.59.7-1.06 1.24-1.42.54-.36 1.15-.53 1.86-.53.71 0 1.33.16 1.86.48.53.32.93.76 1.21 1.32.28.56.42 1.21.42 1.93 0 .14-.01.27-.04.37h-5.76c.03.55.16 1.02.4 1.4.24.38.54.67.91.86.37.19.75.29 1.15.29.93 0 1.65-.44 2.16-1.32l1.03.5c-.32.59-.74 1.06-1.28 1.4-.54.34-1.19.51-1.95.51-.7 0-1.32-.17-1.87-.5l-.03.02Zm3.98-4.15c-.02-.3-.11-.61-.26-.92-.15-.3-.39-.56-.72-.77-.33-.21-.74-.31-1.24-.31-.57 0-1.06.18-1.45.55-.4.37-.66.85-.78 1.45h4.45Zm2.69-2.87h1.16v1.17h.06c.14-.4.42-.73.83-1s.84-.4 1.29-.4c.33 0 .62.05.86.16v1.3c-.31-.15-.65-.23-1.03-.23-.35 0-.68.1-.97.3-.3.2-.53.47-.71.81-.18.34-.26.7-.26 1.1v4.08h-1.22v-7.29h-.01Z" fill="#5F6368" stroke="#5F6368" stroke-width=".25" stroke-miterlimit="10"/><path d="M97.01 60.547c0-1.53-.24-3-.49-4.42H76.4v8.34h11.29c-.5 2.7-1.78 4.99-4.07 6.53v5.44h6.99c4.07-3.76 6.41-9.32 6.41-15.89h-.01Z" fill="#4284F4"/><path d="M76.33 81.647c5.81 0 10.7-1.91 14.27-5.21l-6.99-5.44c-1.92 1.3-4.39 2.06-7.28 2.06-5.6 0-10.36-3.79-12.06-8.9h-7.18v5.59c3.54 7.06 10.82 11.9 19.24 11.9Z" fill="#34A853"/><path d="M64.28 64.167c-.43-1.3-.67-2.68-.67-4.11 0-1.43.24-2.81.67-4.11v-5.59H57.1a21.621 21.621 0 0 0-2.29 9.7c0 3.49.83 6.78 2.29 9.7l7.18-5.59Z" fill="#FBBC04"/><path d="M76.33 47.047c3.16 0 6 1.09 8.24 3.23l6.17-6.19c-3.73-3.49-8.6-5.63-14.41-5.63-8.41 0-15.7 4.84-19.24 11.9l7.18 5.59c1.7-5.11 6.45-8.9 12.06-8.9Z" fill="#EA4335"/></svg>